<?xml version="1.0" encoding="utf-8" standalone="no"?>
<!DOCTYPE svg PUBLIC "-//W3C//DTD SVG 1.1//EN"
  "http://www.w3.org/Graphics/SVG/1.1/DTD/svg11.dtd">
<svg xmlns:xlink="http://www.w3.org/1999/xlink" width="1627.2pt" height="1022.4pt" viewBox="0 0 1627.2 1022.4" xmlns="http://www.w3.org/2000/svg" version="1.1">
 <metadata>
  <rdf:RDF xmlns:dc="http://purl.org/dc/elements/1.1/" xmlns:cc="http://creativecommons.org/ns#" xmlns:rdf="http://www.w3.org/1999/02/22-rdf-syntax-ns#">
   <cc:Work>
    <dc:type rdf:resource="http://purl.org/dc/dcmitype/StillImage"/>
    <dc:date>2024-08-13T07:02:02.901536</dc:date>
    <dc:format>image/svg+xml</dc:format>
    <dc:creator>
     <cc:Agent>
      <dc:title>Matplotlib v3.5.2, https://matplotlib.org/</dc:title>
     </cc:Agent>
    </dc:creator>
   </cc:Work>
  </rdf:RDF>
 </metadata>
 <defs>
  <style type="text/css">*{stroke-linejoin: round; stroke-linecap: butt}</style>
 </defs>
 <g id="figure_1">
  <g id="patch_1">
   <path d="M 0 1022.4 
L 1627.2 1022.4 
L 1627.2 0 
L 0 0 
z
" style="fill: #ffffff"/>
  </g>
  <g id="axes_1">
   <g id="patch_2">
    <path d="M 7.2 1015.2 
L 1620 1015.2 
L 1620 7.2 
L 7.2 7.2 
z
" style="fill: #ffffff"/>
   </g>
   <g id="PolyCollection_1">
    <path d="M 78.677079 892.970561 
L 78.677079 969.381818 
L 78.677079 969.381818 
L 115.323882 969.358748 
L 150.506473 969.290809 
L 184.287161 969.179912 
L 216.728252 969.027965 
L 247.892053 968.836877 
L 277.840871 968.608559 
L 306.637012 968.344919 
L 334.342784 968.047867 
L 361.020493 967.719311 
L 386.732446 967.361161 
L 411.54095 966.975327 
L 435.508311 966.563718 
L 458.696838 966.128243 
L 481.168836 965.67081 
L 502.986612 965.193331 
L 524.212473 964.697713 
L 544.908726 964.185866 
L 565.137677 963.6597 
L 584.961635 963.121123 
L 604.442904 962.572046 
L 623.643793 962.014376 
L 642.626609 961.450024 
L 661.453657 960.880899 
L 680.187244 960.30891 
L 698.889679 959.735967 
L 717.623266 959.163977 
L 736.450314 958.594852 
L 755.43313 958.0305 
L 774.634019 957.472831 
L 794.115288 956.923753 
L 813.939246 956.385177 
L 834.168197 955.85901 
L 854.86445 955.347164 
L 876.090312 954.851546 
L 897.908088 954.374066 
L 920.380085 953.916634 
L 943.568612 953.481159 
L 967.535973 953.069549 
L 992.344477 952.683715 
L 1018.05643 952.325566 
L 1044.734139 951.99701 
L 1072.439911 951.699958 
L 1101.236052 951.436318 
L 1131.18487 951.207999 
L 1162.348671 951.016912 
L 1194.789762 950.864965 
L 1228.57045 950.754068 
L 1263.753042 950.686129 
L 1300.399844 950.663059 
L 1300.399844 950.663059 
L 1300.399844 874.251801 
L 1300.399844 874.251801 
L 1263.753042 874.274872 
L 1228.57045 874.34281 
L 1194.789762 874.453708 
L 1162.348671 874.605655 
L 1131.18487 874.796742 
L 1101.236052 875.02506 
L 1072.439911 875.2887 
L 1044.734139 875.585753 
L 1018.05643 875.914309 
L 992.344477 876.272458 
L 967.535973 876.658292 
L 943.568612 877.069901 
L 920.380085 877.505377 
L 897.908088 877.962809 
L 876.090312 878.440289 
L 854.86445 878.935906 
L 834.168197 879.447753 
L 813.939246 879.973919 
L 794.115288 880.512496 
L 774.634019 881.061574 
L 755.43313 881.619243 
L 736.450314 882.183595 
L 717.623266 882.75272 
L 698.889679 883.324709 
L 680.187244 883.897653 
L 661.453657 884.469642 
L 642.626609 885.038767 
L 623.643793 885.603119 
L 604.442904 886.160788 
L 584.961635 886.709866 
L 565.137677 887.248443 
L 544.908726 887.774609 
L 524.212473 888.286456 
L 502.986612 888.782074 
L 481.168836 889.259553 
L 458.696838 889.716985 
L 435.508311 890.152461 
L 411.54095 890.56407 
L 386.732446 890.949904 
L 361.020493 891.308054 
L 334.342784 891.636609 
L 306.637012 891.933662 
L 277.840871 892.197302 
L 247.892053 892.42562 
L 216.728252 892.616707 
L 184.287161 892.768654 
L 150.506473 892.879552 
L 115.323882 892.94749 
L 78.677079 892.970561 
z
" clip-path="url(#pf800886703)" style="fill: #808080; fill-opacity: 0.6; stroke: #808080; stroke-opacity: 0.6; stroke-width: 2"/>
    <path d="M 78.677079 309.028548 
L 78.677079 574.263778 
L 78.677079 574.263778 
L 115.323882 574.244229 
L 150.506473 574.186661 
L 184.287161 574.092691 
L 216.728252 573.963937 
L 247.892053 573.802018 
L 277.840871 573.60855 
L 306.637012 573.385153 
L 334.342784 573.133443 
L 361.020493 572.855038 
L 386.732446 572.551557 
L 411.54095 572.224618 
L 435.508311 571.875837 
L 458.696838 571.506833 
L 481.168836 571.119224 
L 502.986612 570.714628 
L 524.212473 570.294662 
L 544.908726 569.860944 
L 565.137677 569.415092 
L 584.961635 568.958725 
L 604.442904 568.493459 
L 623.643793 568.020913 
L 642.626609 567.542705 
L 661.453657 567.060452 
L 680.187244 566.575772 
L 698.889679 566.090283 
L 717.623266 565.605603 
L 736.450314 565.12335 
L 755.43313 564.645142 
L 774.634019 564.172596 
L 794.115288 563.70733 
L 813.939246 563.250963 
L 834.168197 562.805111 
L 854.86445 562.371394 
L 876.090312 561.951428 
L 897.908088 561.546831 
L 920.380085 561.159222 
L 943.568612 560.790218 
L 967.535973 560.441438 
L 992.344477 560.114498 
L 1018.05643 559.811017 
L 1044.734139 559.532612 
L 1072.439911 559.280902 
L 1101.236052 559.057505 
L 1131.18487 558.864037 
L 1162.348671 558.702118 
L 1194.789762 558.573364 
L 1228.57045 558.479394 
L 1263.753042 558.421826 
L 1300.399844 558.402277 
L 1300.399844 558.402277 
L 1300.399844 293.167047 
L 1300.399844 293.167047 
L 1263.753042 293.186596 
L 1228.57045 293.244165 
L 1194.789762 293.338135 
L 1162.348671 293.466888 
L 1131.18487 293.628808 
L 1101.236052 293.822275 
L 1072.439911 294.045673 
L 1044.734139 294.297383 
L 1018.05643 294.575787 
L 992.344477 294.879268 
L 967.535973 295.206208 
L 943.568612 295.554989 
L 920.380085 295.923992 
L 897.908088 296.311601 
L 876.090312 296.716198 
L 854.86445 297.136164 
L 834.168197 297.569881 
L 813.939246 298.015733 
L 794.115288 298.4721 
L 774.634019 298.937366 
L 755.43313 299.409912 
L 736.450314 299.888121 
L 717.623266 300.370374 
L 698.889679 300.855053 
L 680.187244 301.340542 
L 661.453657 301.825222 
L 642.626609 302.307475 
L 623.643793 302.785683 
L 604.442904 303.258229 
L 584.961635 303.723495 
L 565.137677 304.179863 
L 544.908726 304.625714 
L 524.212473 305.059432 
L 502.986612 305.479398 
L 481.168836 305.883994 
L 458.696838 306.271603 
L 435.508311 306.640607 
L 411.54095 306.989388 
L 386.732446 307.316328 
L 361.020493 307.619809 
L 334.342784 307.898213 
L 306.637012 308.149923 
L 277.840871 308.37332 
L 247.892053 308.566788 
L 216.728252 308.728707 
L 184.287161 308.857461 
L 150.506473 308.951431 
L 115.323882 309.008999 
L 78.677079 309.028548 
z
" clip-path="url(#pf800886703)" style="fill: #808080; fill-opacity: 0.6; stroke: #808080; stroke-opacity: 0.6; stroke-width: 2"/>
    <path d="M 78.677079 574.263778 
L 78.677079 593.366592 
L 78.677079 593.366592 
L 115.323882 593.531671 
L 150.506473 594.0178 
L 184.287161 594.811318 
L 216.728252 595.898562 
L 247.892053 597.26587 
L 277.840871 598.899582 
L 306.637012 600.786036 
L 334.342784 602.91157 
L 361.020493 605.262521 
L 386.732446 607.825229 
L 411.54095 610.586032 
L 435.508311 613.531267 
L 458.696838 616.647274 
L 481.168836 619.920391 
L 502.986612 623.336955 
L 524.212473 626.883306 
L 544.908726 630.545781 
L 565.137677 634.310719 
L 584.961635 638.164458 
L 604.442904 642.093336 
L 623.643793 646.083692 
L 642.626609 650.121864 
L 661.453657 654.19419 
L 680.187244 658.287009 
L 698.889679 662.386659 
L 717.623266 666.479478 
L 736.450314 670.551804 
L 755.43313 674.589976 
L 774.634019 678.580332 
L 794.115288 682.50921 
L 813.939246 686.362949 
L 834.168197 690.127887 
L 854.86445 693.790362 
L 876.090312 697.336713 
L 897.908088 700.753277 
L 920.380085 704.026394 
L 943.568612 707.142401 
L 967.535973 710.087636 
L 992.344477 712.848439 
L 1018.05643 715.411147 
L 1044.734139 717.762099 
L 1072.439911 719.887632 
L 1101.236052 721.774086 
L 1131.18487 723.407798 
L 1162.348671 724.775106 
L 1194.789762 725.86235 
L 1228.57045 726.655868 
L 1263.753042 727.141997 
L 1300.399844 727.307076 
L 1300.399844 727.307076 
L 1300.399844 708.204261 
L 1300.399844 708.204261 
L 1263.753042 708.039182 
L 1228.57045 707.553053 
L 1194.789762 706.759536 
L 1162.348671 705.672292 
L 1131.18487 704.304983 
L 1101.236052 702.671271 
L 1072.439911 700.784818 
L 1044.734139 698.659284 
L 1018.05643 696.308333 
L 992.344477 693.745625 
L 967.535973 690.984822 
L 943.568612 688.039586 
L 920.380085 684.923579 
L 897.908088 681.650463 
L 876.090312 678.233898 
L 854.86445 674.687548 
L 834.168197 671.025073 
L 813.939246 667.260135 
L 794.115288 663.406396 
L 774.634019 659.477517 
L 755.43313 655.487161 
L 736.450314 651.44899 
L 717.623266 647.376663 
L 698.889679 643.283844 
L 680.187244 639.184195 
L 661.453657 635.091376 
L 642.626609 631.01905 
L 623.643793 626.980878 
L 604.442904 622.990522 
L 584.961635 619.061644 
L 565.137677 615.207905 
L 544.908726 611.442967 
L 524.212473 607.780492 
L 502.986612 604.234141 
L 481.168836 600.817577 
L 458.696838 597.54446 
L 435.508311 594.428453 
L 411.54095 591.483217 
L 386.732446 588.722415 
L 361.020493 586.159707 
L 334.342784 583.808755 
L 306.637012 581.683222 
L 277.840871 579.796768 
L 247.892053 578.163056 
L 216.728252 576.795747 
L 184.287161 575.708503 
L 150.506473 574.914986 
L 115.323882 574.428857 
L 78.677079 574.263778 
z
" clip-path="url(#pf800886703)" style="fill: #808080; fill-opacity: 0.6; stroke: #808080; stroke-opacity: 0.6; stroke-width: 2"/>
    <path d="M 78.677079 630.021138 
L 78.677079 709.37129 
L 78.677079 709.37129 
L 115.323882 709.283021 
L 150.506473 709.023085 
L 184.287161 708.598786 
L 216.728252 708.017429 
L 247.892053 707.28632 
L 277.840871 706.412763 
L 306.637012 705.404064 
L 334.342784 704.267527 
L 361.020493 703.010458 
L 386.732446 701.640161 
L 411.54095 700.163942 
L 435.508311 698.589105 
L 458.696838 696.922955 
L 481.168836 695.172798 
L 502.986612 693.345939 
L 524.212473 691.449682 
L 544.908726 689.491332 
L 565.137677 687.478195 
L 584.961635 685.417575 
L 604.442904 683.316778 
L 623.643793 681.183108 
L 642.626609 679.023871 
L 661.453657 676.846371 
L 680.187244 674.657914 
L 698.889679 672.465804 
L 717.623266 670.277347 
L 736.450314 668.099848 
L 755.43313 665.94061 
L 774.634019 663.806941 
L 794.115288 661.706143 
L 813.939246 659.645524 
L 834.168197 657.632387 
L 854.86445 655.674037 
L 876.090312 653.77778 
L 897.908088 651.95092 
L 920.380085 650.200763 
L 943.568612 648.534614 
L 967.535973 646.959777 
L 992.344477 645.483557 
L 1018.05643 644.113261 
L 1044.734139 642.856191 
L 1072.439911 641.719654 
L 1101.236052 640.710955 
L 1131.18487 639.837399 
L 1162.348671 639.10629 
L 1194.789762 638.524933 
L 1228.57045 638.100634 
L 1263.753042 637.840698 
L 1300.399844 637.752429 
L 1300.399844 637.752429 
L 1300.399844 558.402277 
L 1300.399844 558.402277 
L 1263.753042 558.490546 
L 1228.57045 558.750482 
L 1194.789762 559.174781 
L 1162.348671 559.756138 
L 1131.18487 560.487247 
L 1101.236052 561.360803 
L 1072.439911 562.369503 
L 1044.734139 563.506039 
L 1018.05643 564.763109 
L 992.344477 566.133406 
L 967.535973 567.609625 
L 943.568612 569.184462 
L 920.380085 570.850611 
L 897.908088 572.600768 
L 876.090312 574.427628 
L 854.86445 576.323885 
L 834.168197 578.282235 
L 813.939246 580.295372 
L 794.115288 582.355992 
L 774.634019 584.456789 
L 755.43313 586.590458 
L 736.450314 588.749696 
L 717.623266 590.927195 
L 698.889679 593.115653 
L 680.187244 595.307762 
L 661.453657 597.49622 
L 642.626609 599.673719 
L 623.643793 601.832957 
L 604.442904 603.966626 
L 584.961635 606.067423 
L 565.137677 608.128043 
L 544.908726 610.14118 
L 524.212473 612.09953 
L 502.986612 613.995787 
L 481.168836 615.822647 
L 458.696838 617.572804 
L 435.508311 619.238953 
L 411.54095 620.81379 
L 386.732446 622.290009 
L 361.020493 623.660306 
L 334.342784 624.917376 
L 306.637012 626.053912 
L 277.840871 627.062612 
L 247.892053 627.936168 
L 216.728252 628.667277 
L 184.287161 629.248634 
L 150.506473 629.672933 
L 115.323882 629.932869 
L 78.677079 630.021138 
z
" clip-path="url(#pf800886703)" style="fill: #808080; fill-opacity: 0.6; stroke: #808080; stroke-opacity: 0.6; stroke-width: 2"/>
    <path d="M 78.677079 709.37129 
L 78.677079 856.316015 
L 78.677079 856.316015 
L 115.323882 856.338121 
L 150.506473 856.403218 
L 184.287161 856.509477 
L 216.728252 856.655068 
L 247.892053 856.838162 
L 277.840871 857.05693 
L 306.637012 857.309543 
L 334.342784 857.59417 
L 361.020493 857.908983 
L 386.732446 858.252152 
L 411.54095 858.621847 
L 435.508311 859.016239 
L 458.696838 859.433499 
L 481.168836 859.871798 
L 502.986612 860.329305 
L 524.212473 860.804192 
L 544.908726 861.294629 
L 565.137677 861.798787 
L 584.961635 862.314836 
L 604.442904 862.840947 
L 623.643793 863.37529 
L 642.626609 863.916036 
L 661.453657 864.461355 
L 680.187244 865.009419 
L 698.889679 865.558398 
L 717.623266 866.106461 
L 736.450314 866.651781 
L 755.43313 867.192527 
L 774.634019 867.72687 
L 794.115288 868.252981 
L 813.939246 868.76903 
L 834.168197 869.273187 
L 854.86445 869.763624 
L 876.090312 870.238511 
L 897.908088 870.696019 
L 920.380085 871.134317 
L 943.568612 871.551577 
L 967.535973 871.94597 
L 992.344477 872.315665 
L 1018.05643 872.658834 
L 1044.734139 872.973647 
L 1072.439911 873.258274 
L 1101.236052 873.510886 
L 1131.18487 873.729654 
L 1162.348671 873.912749 
L 1194.789762 874.05834 
L 1228.57045 874.164599 
L 1263.753042 874.229696 
L 1300.399844 874.251801 
L 1300.399844 874.251801 
L 1300.399844 727.307076 
L 1300.399844 727.307076 
L 1263.753042 727.28497 
L 1228.57045 727.219873 
L 1194.789762 727.113614 
L 1162.348671 726.968023 
L 1131.18487 726.784929 
L 1101.236052 726.566161 
L 1072.439911 726.313548 
L 1044.734139 726.028921 
L 1018.05643 725.714108 
L 992.344477 725.370939 
L 967.535973 725.001244 
L 943.568612 724.606852 
L 920.380085 724.189592 
L 897.908088 723.751293 
L 876.090312 723.293786 
L 854.86445 722.818899 
L 834.168197 722.328462 
L 813.939246 721.824304 
L 794.115288 721.308255 
L 774.634019 720.782144 
L 755.43313 720.247801 
L 736.450314 719.707055 
L 717.623266 719.161736 
L 698.889679 718.613672 
L 680.187244 718.064693 
L 661.453657 717.51663 
L 642.626609 716.97131 
L 623.643793 716.430564 
L 604.442904 715.896221 
L 584.961635 715.37011 
L 565.137677 714.854061 
L 544.908726 714.349904 
L 524.212473 713.859467 
L 502.986612 713.38458 
L 481.168836 712.927072 
L 458.696838 712.488774 
L 435.508311 712.071514 
L 411.54095 711.677121 
L 386.732446 711.307426 
L 361.020493 710.964257 
L 334.342784 710.649444 
L 306.637012 710.364817 
L 277.840871 710.112205 
L 247.892053 709.893437 
L 216.728252 709.710342 
L 184.287161 709.564751 
L 150.506473 709.458492 
L 115.323882 709.393395 
L 78.677079 709.37129 
z
" clip-path="url(#pf800886703)" style="fill: #808080; fill-opacity: 0.6; stroke: #808080; stroke-opacity: 0.6; stroke-width: 2"/>
    <path d="M 78.677079 153.512047 
L 78.677079 154.981494 
L 78.677079 154.981494 
L 115.323882 155.135506 
L 150.506473 155.589042 
L 184.287161 156.329359 
L 216.728252 157.343709 
L 247.892053 158.619348 
L 277.840871 160.143528 
L 306.637012 161.903506 
L 334.342784 163.886534 
L 361.020493 166.079868 
L 386.732446 168.470761 
L 411.54095 171.046467 
L 435.508311 173.794241 
L 458.696838 176.701337 
L 481.168836 179.75501 
L 502.986612 182.942513 
L 524.212473 186.251101 
L 544.908726 189.668028 
L 565.137677 193.180548 
L 584.961635 196.775915 
L 604.442904 200.441384 
L 623.643793 204.164209 
L 642.626609 207.931644 
L 661.453657 211.730944 
L 680.187244 215.549362 
L 698.889679 219.374154 
L 717.623266 223.192572 
L 736.450314 226.991872 
L 755.43313 230.759307 
L 774.634019 234.482132 
L 794.115288 238.147601 
L 813.939246 241.742969 
L 834.168197 245.255489 
L 854.86445 248.672415 
L 876.090312 251.981003 
L 897.908088 255.168506 
L 920.380085 258.222179 
L 943.568612 261.129275 
L 967.535973 263.877049 
L 992.344477 266.452756 
L 1018.05643 268.843648 
L 1044.734139 271.036982 
L 1072.439911 273.02001 
L 1101.236052 274.779988 
L 1131.18487 276.304169 
L 1162.348671 277.579807 
L 1194.789762 278.594157 
L 1228.57045 279.334474 
L 1263.753042 279.788011 
L 1300.399844 279.942022 
L 1300.399844 279.942022 
L 1300.399844 278.472575 
L 1300.399844 278.472575 
L 1263.753042 278.318563 
L 1228.57045 277.865027 
L 1194.789762 277.12471 
L 1162.348671 276.11036 
L 1131.18487 274.834721 
L 1101.236052 273.31054 
L 1072.439911 271.550563 
L 1044.734139 269.567535 
L 1018.05643 267.374201 
L 992.344477 264.983308 
L 967.535973 262.407602 
L 943.568612 259.659828 
L 920.380085 256.752732 
L 897.908088 253.699059 
L 876.090312 250.511556 
L 854.86445 247.202968 
L 834.168197 243.786041 
L 813.939246 240.273521 
L 794.115288 236.678154 
L 774.634019 233.012685 
L 755.43313 229.28986 
L 736.450314 225.522424 
L 717.623266 221.723125 
L 698.889679 217.904706 
L 680.187244 214.079915 
L 661.453657 210.261497 
L 642.626609 206.462197 
L 623.643793 202.694762 
L 604.442904 198.971937 
L 584.961635 195.306468 
L 565.137677 191.7111 
L 544.908726 188.19858 
L 524.212473 184.781653 
L 502.986612 181.473066 
L 481.168836 178.285563 
L 458.696838 175.23189 
L 435.508311 172.324794 
L 411.54095 169.57702 
L 386.732446 167.001313 
L 361.020493 164.610421 
L 334.342784 162.417087 
L 306.637012 160.434059 
L 277.840871 158.674081 
L 247.892053 157.1499 
L 216.728252 155.874262 
L 184.287161 154.859911 
L 150.506473 154.119595 
L 115.323882 153.666058 
L 78.677079 153.512047 
z
" clip-path="url(#pf800886703)" style="fill: #808080; fill-opacity: 0.6; stroke: #808080; stroke-opacity: 0.6; stroke-width: 2"/>
    <path d="M 78.677079 154.981494 
L 78.677079 155.716218 
L 78.677079 155.716218 
L 115.323882 156.360021 
L 150.506473 158.255912 
L 184.287161 161.350608 
L 216.728252 165.590831 
L 247.892053 170.9233 
L 277.840871 177.294734 
L 306.637012 184.651854 
L 334.342784 192.941378 
L 361.020493 202.110028 
L 386.732446 212.104522 
L 411.54095 222.87158 
L 435.508311 234.357922 
L 458.696838 246.510267 
L 481.168836 259.275336 
L 502.986612 272.599848 
L 524.212473 286.430522 
L 544.908726 300.714079 
L 565.137677 315.397238 
L 584.961635 330.426719 
L 604.442904 345.749242 
L 623.643793 361.311526 
L 642.626609 377.060291 
L 661.453657 392.942256 
L 680.187244 408.904142 
L 698.889679 424.892668 
L 717.623266 440.854554 
L 736.450314 456.73652 
L 755.43313 472.485285 
L 774.634019 488.047569 
L 794.115288 503.370091 
L 813.939246 518.399572 
L 834.168197 533.082731 
L 854.86445 547.366288 
L 876.090312 561.196963 
L 897.908088 574.521475 
L 920.380085 587.286543 
L 943.568612 599.438889 
L 967.535973 610.925231 
L 992.344477 621.692289 
L 1018.05643 631.686783 
L 1044.734139 640.855432 
L 1072.439911 649.144957 
L 1101.236052 656.502076 
L 1131.18487 662.873511 
L 1162.348671 668.205979 
L 1194.789762 672.446202 
L 1228.57045 675.540899 
L 1263.753042 677.436789 
L 1300.399844 678.080593 
L 1300.399844 678.080593 
L 1300.399844 677.345869 
L 1300.399844 677.345869 
L 1263.753042 676.702065 
L 1228.57045 674.806175 
L 1194.789762 671.711479 
L 1162.348671 667.471256 
L 1131.18487 662.138787 
L 1101.236052 655.767353 
L 1072.439911 648.410233 
L 1044.734139 640.120708 
L 1018.05643 630.952059 
L 992.344477 620.957565 
L 967.535973 610.190507 
L 943.568612 598.704165 
L 920.380085 586.55182 
L 897.908088 573.786751 
L 876.090312 560.462239 
L 854.86445 546.631565 
L 834.168197 532.348008 
L 813.939246 517.664848 
L 794.115288 502.635367 
L 774.634019 487.312845 
L 755.43313 471.750561 
L 736.450314 456.001796 
L 717.623266 440.119831 
L 698.889679 424.157945 
L 680.187244 408.169418 
L 661.453657 392.207532 
L 642.626609 376.325567 
L 623.643793 360.576802 
L 604.442904 345.014518 
L 584.961635 329.691996 
L 565.137677 314.662515 
L 544.908726 299.979356 
L 524.212473 285.695799 
L 502.986612 271.865124 
L 481.168836 258.540612 
L 458.696838 245.775543 
L 435.508311 233.623198 
L 411.54095 222.136856 
L 386.732446 211.369798 
L 361.020493 201.375304 
L 334.342784 192.206655 
L 306.637012 183.91713 
L 277.840871 176.560011 
L 247.892053 170.188576 
L 216.728252 164.856107 
L 184.287161 160.615885 
L 150.506473 157.521188 
L 115.323882 155.625298 
L 78.677079 154.981494 
z
" clip-path="url(#pf800886703)" style="fill: #808080; fill-opacity: 0.6; stroke: #808080; stroke-opacity: 0.6; stroke-width: 2"/>
    <path d="M 78.677079 53.018182 
L 78.677079 65.508483 
L 78.677079 65.508483 
L 115.323882 65.756469 
L 150.506473 66.486743 
L 184.287161 67.678783 
L 216.728252 69.312066 
L 247.892053 71.36607 
L 277.840871 73.82027 
L 306.637012 76.654145 
L 334.342784 79.84717 
L 361.020493 83.378825 
L 386.732446 87.228584 
L 411.54095 91.375926 
L 435.508311 95.800328 
L 458.696838 100.481266 
L 481.168836 105.398218 
L 502.986612 110.530661 
L 524.212473 115.858071 
L 544.908726 121.359926 
L 565.137677 127.015704 
L 584.961635 132.80488 
L 604.442904 138.706933 
L 623.643793 144.701339 
L 642.626609 150.767575 
L 661.453657 156.885118 
L 680.187244 163.033445 
L 698.889679 169.192035 
L 717.623266 175.340362 
L 736.450314 181.457906 
L 755.43313 187.524142 
L 774.634019 193.518547 
L 794.115288 199.4206 
L 813.939246 205.209776 
L 834.168197 210.865554 
L 854.86445 216.367409 
L 876.090312 221.69482 
L 897.908088 226.827262 
L 920.380085 231.744214 
L 943.568612 236.425152 
L 967.535973 240.849554 
L 992.344477 244.996896 
L 1018.05643 248.846656 
L 1044.734139 252.37831 
L 1072.439911 255.571336 
L 1101.236052 258.40521 
L 1131.18487 260.85941 
L 1162.348671 262.913414 
L 1194.789762 264.546697 
L 1228.57045 265.738737 
L 1263.753042 266.469011 
L 1300.399844 266.716997 
L 1300.399844 266.716997 
L 1300.399844 254.226695 
L 1300.399844 254.226695 
L 1263.753042 253.97871 
L 1228.57045 253.248435 
L 1194.789762 252.056395 
L 1162.348671 250.423112 
L 1131.18487 248.369109 
L 1101.236052 245.914908 
L 1072.439911 243.081034 
L 1044.734139 239.888008 
L 1018.05643 236.356354 
L 992.344477 232.506594 
L 967.535973 228.359252 
L 943.568612 223.934851 
L 920.380085 219.253912 
L 897.908088 214.336961 
L 876.090312 209.204518 
L 854.86445 203.877107 
L 834.168197 198.375252 
L 813.939246 192.719475 
L 794.115288 186.930298 
L 774.634019 181.028246 
L 755.43313 175.03384 
L 736.450314 168.967604 
L 717.623266 162.850061 
L 698.889679 156.701733 
L 680.187244 150.543144 
L 661.453657 144.394816 
L 642.626609 138.277273 
L 623.643793 132.211037 
L 604.442904 126.216631 
L 584.961635 120.314579 
L 565.137677 114.525402 
L 544.908726 108.869625 
L 524.212473 103.367769 
L 502.986612 98.040359 
L 481.168836 92.907916 
L 458.696838 87.990964 
L 435.508311 83.310026 
L 411.54095 78.885624 
L 386.732446 74.738282 
L 361.020493 70.888523 
L 334.342784 67.356869 
L 306.637012 64.163843 
L 277.840871 61.329968 
L 247.892053 58.875768 
L 216.728252 56.821765 
L 184.287161 55.188482 
L 150.506473 53.996441 
L 115.323882 53.266167 
L 78.677079 53.018182 
z
" clip-path="url(#pf800886703)" style="fill: #808080; fill-opacity: 0.6; stroke: #808080; stroke-opacity: 0.6; stroke-width: 2"/>
    <path d="M 78.677079 65.508483 
L 78.677079 65.508483 
L 78.677079 65.508483 
L 115.323882 66.258939 
L 150.506473 68.468899 
L 184.287161 72.076259 
L 216.728252 77.018911 
L 247.892053 83.234748 
L 277.840871 90.661665 
L 306.637012 99.237554 
L 334.342784 108.90031 
L 361.020493 119.587824 
L 386.732446 131.237991 
L 411.54095 143.788704 
L 435.508311 157.177857 
L 458.696838 171.343342 
L 481.168836 186.223053 
L 502.986612 201.754884 
L 524.212473 217.876728 
L 544.908726 234.526478 
L 565.137677 251.642028 
L 584.961635 269.16127 
L 604.442904 287.0221 
L 623.643793 305.162408 
L 642.626609 323.520091 
L 661.453657 342.033039 
L 680.187244 360.639148 
L 698.889679 379.27631 
L 717.623266 397.882419 
L 736.450314 416.395367 
L 755.43313 434.753049 
L 774.634019 452.893358 
L 794.115288 470.754188 
L 813.939246 488.27343 
L 834.168197 505.38898 
L 854.86445 522.03873 
L 876.090312 538.160574 
L 897.908088 553.692405 
L 920.380085 568.572116 
L 943.568612 582.737601 
L 967.535973 596.126754 
L 992.344477 608.677467 
L 1018.05643 620.327634 
L 1044.734139 631.015148 
L 1072.439911 640.677903 
L 1101.236052 649.253793 
L 1131.18487 656.68071 
L 1162.348671 662.896547 
L 1194.789762 667.839199 
L 1228.57045 671.446559 
L 1263.753042 673.656519 
L 1300.399844 674.406974 
L 1300.399844 674.406974 
L 1300.399844 674.406974 
L 1300.399844 674.406974 
L 1263.753042 673.656519 
L 1228.57045 671.446559 
L 1194.789762 667.839199 
L 1162.348671 662.896547 
L 1131.18487 656.68071 
L 1101.236052 649.253793 
L 1072.439911 640.677903 
L 1044.734139 631.015148 
L 1018.05643 620.327634 
L 992.344477 608.677467 
L 967.535973 596.126754 
L 943.568612 582.737601 
L 920.380085 568.572116 
L 897.908088 553.692405 
L 876.090312 538.160574 
L 854.86445 522.03873 
L 834.168197 505.38898 
L 813.939246 488.27343 
L 794.115288 470.754188 
L 774.634019 452.893358 
L 755.43313 434.753049 
L 736.450314 416.395367 
L 717.623266 397.882419 
L 698.889679 379.27631 
L 680.187244 360.639148 
L 661.453657 342.033039 
L 642.626609 323.520091 
L 623.643793 305.162408 
L 604.442904 287.0221 
L 584.961635 269.16127 
L 565.137677 251.642028 
L 544.908726 234.526478 
L 524.212473 217.876728 
L 502.986612 201.754884 
L 481.168836 186.223053 
L 458.696838 171.343342 
L 435.508311 157.177857 
L 411.54095 143.788704 
L 386.732446 131.237991 
L 361.020493 119.587824 
L 334.342784 108.90031 
L 306.637012 99.237554 
L 277.840871 90.661665 
L 247.892053 83.234748 
L 216.728252 77.018911 
L 184.287161 72.076259 
L 150.506473 68.468899 
L 115.323882 66.258939 
L 78.677079 65.508483 
z
" clip-path="url(#pf800886703)" style="fill: #808080; fill-opacity: 0.6; stroke: #808080; stroke-opacity: 0.6; stroke-width: 2"/>
    <path d="M 78.677079 102.163029 
L 78.677079 113.918607 
L 78.677079 113.918607 
L 115.323882 114.121416 
L 150.506473 114.718655 
L 184.287161 115.693539 
L 216.728252 117.029284 
L 247.892053 118.709105 
L 277.840871 120.716219 
L 306.637012 123.033841 
L 334.342784 125.645187 
L 361.020493 128.533473 
L 386.732446 131.681915 
L 411.54095 135.073727 
L 435.508311 138.692127 
L 458.696838 142.52033 
L 481.168836 146.541551 
L 502.986612 150.739007 
L 524.212473 155.095912 
L 544.908726 159.595484 
L 565.137677 164.220938 
L 584.961635 168.955489 
L 604.442904 173.782353 
L 623.643793 178.684746 
L 642.626609 183.645884 
L 661.453657 188.648982 
L 680.187244 193.677257 
L 698.889679 198.713924 
L 717.623266 203.742199 
L 736.450314 208.745298 
L 755.43313 213.706436 
L 774.634019 218.608829 
L 794.115288 223.435693 
L 813.939246 228.170244 
L 834.168197 232.795698 
L 854.86445 237.295269 
L 876.090312 241.652175 
L 897.908088 245.849631 
L 920.380085 249.870852 
L 943.568612 253.699055 
L 967.535973 257.317454 
L 992.344477 260.709267 
L 1018.05643 263.857708 
L 1044.734139 266.745994 
L 1072.439911 269.35734 
L 1101.236052 271.674962 
L 1131.18487 273.682076 
L 1162.348671 275.361898 
L 1194.789762 276.697643 
L 1228.57045 277.672527 
L 1263.753042 278.269765 
L 1300.399844 278.472575 
L 1300.399844 278.472575 
L 1300.399844 266.716997 
L 1300.399844 266.716997 
L 1263.753042 266.514187 
L 1228.57045 265.916948 
L 1194.789762 264.942065 
L 1162.348671 263.60632 
L 1131.18487 261.926498 
L 1101.236052 259.919384 
L 1072.439911 257.601762 
L 1044.734139 254.990416 
L 1018.05643 252.10213 
L 992.344477 248.953689 
L 967.535973 245.561876 
L 943.568612 241.943476 
L 920.380085 238.115274 
L 897.908088 234.094053 
L 876.090312 229.896597 
L 854.86445 225.539691 
L 834.168197 221.040119 
L 813.939246 216.414666 
L 794.115288 211.680115 
L 774.634019 206.853251 
L 755.43313 201.950858 
L 736.450314 196.98972 
L 717.623266 191.986621 
L 698.889679 186.958346 
L 680.187244 181.921679 
L 661.453657 176.893404 
L 642.626609 171.890306 
L 623.643793 166.929168 
L 604.442904 162.026775 
L 584.961635 157.19991 
L 565.137677 152.46536 
L 544.908726 147.839906 
L 524.212473 143.340334 
L 502.986612 138.983429 
L 481.168836 134.785973 
L 458.696838 130.764752 
L 435.508311 126.936549 
L 411.54095 123.318149 
L 386.732446 119.926337 
L 361.020493 116.777895 
L 334.342784 113.889609 
L 306.637012 111.278263 
L 277.840871 108.960641 
L 247.892053 106.953527 
L 216.728252 105.273706 
L 184.287161 103.937961 
L 150.506473 102.963077 
L 115.323882 102.365838 
L 78.677079 102.163029 
z
" clip-path="url(#pf800886703)" style="fill: #808080; fill-opacity: 0.6; stroke: #808080; stroke-opacity: 0.6; stroke-width: 2"/>
    <path d="M 78.677079 113.918607 
L 78.677079 116.857502 
L 78.677079 116.857502 
L 115.323882 117.548292 
L 150.506473 119.582551 
L 184.287161 122.90311 
L 216.728252 127.452799 
L 247.892053 133.17445 
L 277.840871 140.010894 
L 306.637012 147.904962 
L 334.342784 156.799485 
L 361.020493 166.637295 
L 386.732446 177.361222 
L 411.54095 188.914098 
L 435.508311 201.238754 
L 458.696838 214.27802 
L 481.168836 227.974729 
L 502.986612 242.27171 
L 524.212473 257.111796 
L 544.908726 272.437818 
L 565.137677 288.192605 
L 584.961635 304.318991 
L 604.442904 320.759805 
L 623.643793 337.457879 
L 642.626609 354.356045 
L 661.453657 371.397132 
L 680.187244 388.523973 
L 698.889679 405.679398 
L 717.623266 422.806238 
L 736.450314 439.847326 
L 755.43313 456.745491 
L 774.634019 473.443565 
L 794.115288 489.884379 
L 813.939246 506.010765 
L 834.168197 521.765553 
L 854.86445 537.091574 
L 876.090312 551.93166 
L 897.908088 566.228642 
L 920.380085 579.92535 
L 943.568612 592.964616 
L 967.535973 605.289272 
L 992.344477 616.842148 
L 1018.05643 627.566075 
L 1044.734139 637.403885 
L 1072.439911 646.298408 
L 1101.236052 654.192476 
L 1131.18487 661.028921 
L 1162.348671 666.750572 
L 1194.789762 671.300261 
L 1228.57045 674.620819 
L 1263.753042 676.655078 
L 1300.399844 677.345869 
L 1300.399844 677.345869 
L 1300.399844 674.406974 
L 1300.399844 674.406974 
L 1263.753042 673.716184 
L 1228.57045 671.681925 
L 1194.789762 668.361366 
L 1162.348671 663.811677 
L 1131.18487 658.090026 
L 1101.236052 651.253582 
L 1072.439911 643.359514 
L 1044.734139 634.46499 
L 1018.05643 624.627181 
L 992.344477 613.903253 
L 967.535973 602.350378 
L 943.568612 590.025722 
L 920.380085 576.986456 
L 897.908088 563.289747 
L 876.090312 548.992765 
L 854.86445 534.15268 
L 834.168197 518.826658 
L 813.939246 503.07187 
L 794.115288 486.945485 
L 774.634019 470.504671 
L 755.43313 453.806597 
L 736.450314 436.908431 
L 717.623266 419.867344 
L 698.889679 402.740503 
L 680.187244 385.585078 
L 661.453657 368.458237 
L 642.626609 351.41715 
L 623.643793 334.518985 
L 604.442904 317.820911 
L 584.961635 301.380096 
L 565.137677 285.253711 
L 544.908726 269.498923 
L 524.212473 254.172902 
L 502.986612 239.332816 
L 481.168836 225.035834 
L 458.696838 211.339126 
L 435.508311 198.299859 
L 411.54095 185.975204 
L 386.732446 174.422328 
L 361.020493 163.698401 
L 334.342784 153.860591 
L 306.637012 144.966068 
L 277.840871 137.071999 
L 247.892053 130.235555 
L 216.728252 124.513904 
L 184.287161 119.964215 
L 150.506473 116.643656 
L 115.323882 114.609398 
L 78.677079 113.918607 
z
" clip-path="url(#pf800886703)" style="fill: #808080; fill-opacity: 0.6; stroke: #808080; stroke-opacity: 0.6; stroke-width: 2"/>
    <path d="M 78.677079 248.128123 
L 78.677079 254.005912 
L 78.677079 254.005912 
L 115.323882 254.054177 
L 150.506473 254.19631 
L 184.287161 254.428317 
L 216.728252 254.746202 
L 247.892053 255.145972 
L 277.840871 255.623632 
L 306.637012 256.175188 
L 334.342784 256.796645 
L 361.020493 257.48401 
L 386.732446 258.233287 
L 411.54095 259.040482 
L 435.508311 259.901602 
L 458.696838 260.812651 
L 481.168836 261.769636 
L 502.986612 262.768561 
L 524.212473 263.805433 
L 544.908726 264.876257 
L 565.137677 265.977039 
L 584.961635 267.103784 
L 604.442904 268.252498 
L 623.643793 269.419187 
L 642.626609 270.599856 
L 661.453657 271.790511 
L 680.187244 272.987158 
L 698.889679 274.185802 
L 717.623266 275.382448 
L 736.450314 276.573103 
L 755.43313 277.753772 
L 774.634019 278.920461 
L 794.115288 280.069176 
L 813.939246 281.195921 
L 834.168197 282.296703 
L 854.86445 283.367526 
L 876.090312 284.404398 
L 897.908088 285.403324 
L 920.380085 286.360308 
L 943.568612 287.271357 
L 967.535973 288.132477 
L 992.344477 288.939672 
L 1018.05643 289.68895 
L 1044.734139 290.376314 
L 1072.439911 290.997772 
L 1101.236052 291.549327 
L 1131.18487 292.026988 
L 1162.348671 292.426757 
L 1194.789762 292.744643 
L 1228.57045 292.976649 
L 1263.753042 293.118782 
L 1300.399844 293.167047 
L 1300.399844 293.167047 
L 1300.399844 287.289258 
L 1300.399844 287.289258 
L 1263.753042 287.240993 
L 1228.57045 287.09886 
L 1194.789762 286.866854 
L 1162.348671 286.548968 
L 1131.18487 286.149198 
L 1101.236052 285.671538 
L 1072.439911 285.119983 
L 1044.734139 284.498525 
L 1018.05643 283.811161 
L 992.344477 283.061883 
L 967.535973 282.254688 
L 943.568612 281.393568 
L 920.380085 280.482519 
L 897.908088 279.525535 
L 876.090312 278.526609 
L 854.86445 277.489737 
L 834.168197 276.418913 
L 813.939246 275.318132 
L 794.115288 274.191387 
L 774.634019 273.042672 
L 755.43313 271.875983 
L 736.450314 270.695314 
L 717.623266 269.504659 
L 698.889679 268.308013 
L 680.187244 267.109369 
L 661.453657 265.912722 
L 642.626609 264.722067 
L 623.643793 263.541398 
L 604.442904 262.374709 
L 584.961635 261.225995 
L 565.137677 260.09925 
L 544.908726 258.998468 
L 524.212473 257.927644 
L 502.986612 256.890772 
L 481.168836 255.891847 
L 458.696838 254.934862 
L 435.508311 254.023813 
L 411.54095 253.162693 
L 386.732446 252.355498 
L 361.020493 251.606221 
L 334.342784 250.918856 
L 306.637012 250.297399 
L 277.840871 249.745843 
L 247.892053 249.268183 
L 216.728252 248.868413 
L 184.287161 248.550528 
L 150.506473 248.318521 
L 115.323882 248.176388 
L 78.677079 248.128123 
z
" clip-path="url(#pf800886703)" style="fill: #808080; fill-opacity: 0.6; stroke: #808080; stroke-opacity: 0.6; stroke-width: 2"/>
    <path d="M 78.677079 254.005912 
L 78.677079 272.374003 
L 78.677079 272.374003 
L 115.323882 272.911155 
L 150.506473 274.492975 
L 184.287161 277.075008 
L 216.728252 280.612802 
L 247.892053 285.061902 
L 277.840871 290.377854 
L 306.637012 296.516204 
L 334.342784 303.432498 
L 361.020493 311.082282 
L 386.732446 319.421103 
L 411.54095 328.404506 
L 435.508311 337.988037 
L 458.696838 348.127243 
L 481.168836 358.777669 
L 502.986612 369.894862 
L 524.212473 381.434367 
L 544.908726 393.351731 
L 565.137677 405.6025 
L 584.961635 418.142219 
L 604.442904 430.926435 
L 623.643793 443.910693 
L 642.626609 457.050541 
L 661.453657 470.301523 
L 680.187244 483.619187 
L 698.889679 496.959077 
L 717.623266 510.276741 
L 736.450314 523.527723 
L 755.43313 536.667571 
L 774.634019 549.651829 
L 794.115288 562.436045 
L 813.939246 574.975765 
L 834.168197 587.226533 
L 854.86445 599.143897 
L 876.090312 610.683402 
L 897.908088 621.800595 
L 920.380085 632.451021 
L 943.568612 642.590227 
L 967.535973 652.173758 
L 992.344477 661.157161 
L 1018.05643 669.495982 
L 1044.734139 677.145766 
L 1072.439911 684.06206 
L 1101.236052 690.20041 
L 1131.18487 695.516362 
L 1162.348671 699.965462 
L 1194.789762 703.503256 
L 1228.57045 706.08529 
L 1263.753042 707.667109 
L 1300.399844 708.204261 
L 1300.399844 708.204261 
L 1300.399844 689.836171 
L 1300.399844 689.836171 
L 1263.753042 689.299019 
L 1228.57045 687.717199 
L 1194.789762 685.135165 
L 1162.348671 681.597371 
L 1131.18487 677.148272 
L 1101.236052 671.83232 
L 1072.439911 665.69397 
L 1044.734139 658.777675 
L 1018.05643 651.127891 
L 992.344477 642.78907 
L 967.535973 633.805667 
L 943.568612 624.222136 
L 920.380085 614.08293 
L 897.908088 603.432504 
L 876.090312 592.315311 
L 854.86445 580.775806 
L 834.168197 568.858442 
L 813.939246 556.607674 
L 794.115288 544.067955 
L 774.634019 531.283739 
L 755.43313 518.29948 
L 736.450314 505.159632 
L 717.623266 491.90865 
L 698.889679 478.590987 
L 680.187244 465.251096 
L 661.453657 451.933433 
L 642.626609 438.68245 
L 623.643793 425.542603 
L 604.442904 412.558344 
L 584.961635 399.774128 
L 565.137677 387.234409 
L 544.908726 374.98364 
L 524.212473 363.066277 
L 502.986612 351.526771 
L 481.168836 340.409579 
L 458.696838 329.759152 
L 435.508311 319.619947 
L 411.54095 310.036415 
L 386.732446 301.053012 
L 361.020493 292.714192 
L 334.342784 285.064407 
L 306.637012 278.148113 
L 277.840871 272.009763 
L 247.892053 266.693811 
L 216.728252 262.244711 
L 184.287161 258.706918 
L 150.506473 256.124884 
L 115.323882 254.543064 
L 78.677079 254.005912 
z
" clip-path="url(#pf800886703)" style="fill: #808080; fill-opacity: 0.6; stroke: #808080; stroke-opacity: 0.6; stroke-width: 2"/>
    <path d="M 78.677079 192.370763 
L 78.677079 199.718 
L 78.677079 199.718 
L 115.323882 199.825929 
L 150.506473 200.143764 
L 184.287161 200.662571 
L 216.728252 201.373419 
L 247.892053 202.267376 
L 277.840871 203.335509 
L 306.637012 204.568886 
L 334.342784 205.958575 
L 361.020493 207.495644 
L 386.732446 209.171161 
L 411.54095 210.976194 
L 435.508311 212.90181 
L 458.696838 214.939078 
L 481.168836 217.079065 
L 502.986612 219.31284 
L 524.212473 221.63147 
L 544.908726 224.026023 
L 565.137677 226.487566 
L 584.961635 229.007169 
L 604.442904 231.575898 
L 623.643793 234.184822 
L 642.626609 236.825008 
L 661.453657 239.487524 
L 680.187244 242.163439 
L 698.889679 244.843819 
L 717.623266 247.519734 
L 736.450314 250.18225 
L 755.43313 252.822436 
L 774.634019 255.43136 
L 794.115288 258.000089 
L 813.939246 260.519692 
L 834.168197 262.981235 
L 854.86445 265.375788 
L 876.090312 267.694418 
L 897.908088 269.928192 
L 920.380085 272.06818 
L 943.568612 274.105448 
L 967.535973 276.031064 
L 992.344477 277.836097 
L 1018.05643 279.511614 
L 1044.734139 281.048683 
L 1072.439911 282.438372 
L 1101.236052 283.671749 
L 1131.18487 284.739882 
L 1162.348671 285.633838 
L 1194.789762 286.344686 
L 1228.57045 286.863494 
L 1263.753042 287.181328 
L 1300.399844 287.289258 
L 1300.399844 287.289258 
L 1300.399844 279.942022 
L 1300.399844 279.942022 
L 1263.753042 279.834092 
L 1228.57045 279.516258 
L 1194.789762 278.99745 
L 1162.348671 278.286602 
L 1131.18487 277.392646 
L 1101.236052 276.324513 
L 1072.439911 275.091136 
L 1044.734139 273.701447 
L 1018.05643 272.164378 
L 992.344477 270.488861 
L 967.535973 268.683828 
L 943.568612 266.758211 
L 920.380085 264.720943 
L 897.908088 262.580956 
L 876.090312 260.347182 
L 854.86445 258.028552 
L 834.168197 255.633999 
L 813.939246 253.172455 
L 794.115288 250.652853 
L 774.634019 248.084124 
L 755.43313 245.4752 
L 736.450314 242.835014 
L 717.623266 240.172498 
L 698.889679 237.496583 
L 680.187244 234.816202 
L 661.453657 232.140288 
L 642.626609 229.477771 
L 623.643793 226.837585 
L 604.442904 224.228662 
L 584.961635 221.659932 
L 565.137677 219.14033 
L 544.908726 216.678786 
L 524.212473 214.284234 
L 502.986612 211.965604 
L 481.168836 209.731829 
L 458.696838 207.591842 
L 435.508311 205.554574 
L 411.54095 203.628957 
L 386.732446 201.823925 
L 361.020493 200.148408 
L 334.342784 198.611339 
L 306.637012 197.221649 
L 277.840871 195.988272 
L 247.892053 194.92014 
L 216.728252 194.026183 
L 184.287161 193.315335 
L 150.506473 192.796528 
L 115.323882 192.478693 
L 78.677079 192.370763 
z
" clip-path="url(#pf800886703)" style="fill: #808080; fill-opacity: 0.6; stroke: #808080; stroke-opacity: 0.6; stroke-width: 2"/>
    <path d="M 78.677079 199.718 
L 78.677079 211.473578 
L 78.677079 211.473578 
L 115.323882 212.06315 
L 150.506473 213.799338 
L 184.287161 216.633351 
L 216.728252 220.516395 
L 247.892053 225.399679 
L 277.840871 231.23441 
L 306.637012 237.971797 
L 334.342784 245.563047 
L 361.020493 253.959368 
L 386.732446 263.111968 
L 411.54095 272.972054 
L 435.508311 283.490834 
L 458.696838 294.619517 
L 481.168836 306.30931 
L 502.986612 318.511421 
L 524.212473 331.177058 
L 544.908726 344.257428 
L 565.137677 357.703739 
L 584.961635 371.4672 
L 604.442904 385.499018 
L 623.643793 399.7504 
L 642.626609 414.172555 
L 661.453657 428.71669 
L 680.187244 443.334014 
L 698.889679 457.975734 
L 717.623266 472.593058 
L 736.450314 487.137193 
L 755.43313 501.559348 
L 774.634019 515.810731 
L 794.115288 529.842548 
L 813.939246 543.606009 
L 834.168197 557.05232 
L 854.86445 570.13269 
L 876.090312 582.798327 
L 897.908088 595.000438 
L 920.380085 606.690231 
L 943.568612 617.818914 
L 967.535973 628.337694 
L 992.344477 638.197781 
L 1018.05643 647.35038 
L 1044.734139 655.746701 
L 1072.439911 663.337951 
L 1101.236052 670.075338 
L 1131.18487 675.910069 
L 1162.348671 680.793353 
L 1194.789762 684.676398 
L 1228.57045 687.51041 
L 1263.753042 689.246598 
L 1300.399844 689.836171 
L 1300.399844 689.836171 
L 1300.399844 678.080593 
L 1300.399844 678.080593 
L 1263.753042 677.49102 
L 1228.57045 675.754832 
L 1194.789762 672.92082 
L 1162.348671 669.037775 
L 1131.18487 664.154491 
L 1101.236052 658.31976 
L 1072.439911 651.582373 
L 1044.734139 643.991123 
L 1018.05643 635.594802 
L 992.344477 626.442203 
L 967.535973 616.582116 
L 943.568612 606.063336 
L 920.380085 594.934653 
L 897.908088 583.24486 
L 876.090312 571.042749 
L 854.86445 558.377112 
L 834.168197 545.296742 
L 813.939246 531.850431 
L 794.115288 518.08697 
L 774.634019 504.055153 
L 755.43313 489.80377 
L 736.450314 475.381615 
L 717.623266 460.83748 
L 698.889679 446.220156 
L 680.187244 431.578436 
L 661.453657 416.961112 
L 642.626609 402.416977 
L 623.643793 387.994822 
L 604.442904 373.743439 
L 584.961635 359.711622 
L 565.137677 345.948161 
L 544.908726 332.50185 
L 524.212473 319.42148 
L 502.986612 306.755843 
L 481.168836 294.553732 
L 458.696838 282.863939 
L 435.508311 271.735256 
L 411.54095 261.216476 
L 386.732446 251.356389 
L 361.020493 242.20379 
L 334.342784 233.807469 
L 306.637012 226.216219 
L 277.840871 219.478832 
L 247.892053 213.644101 
L 216.728252 208.760817 
L 184.287161 204.877773 
L 150.506473 202.04376 
L 115.323882 200.307572 
L 78.677079 199.718 
z
" clip-path="url(#pf800886703)" style="fill: #808080; fill-opacity: 0.6; stroke: #808080; stroke-opacity: 0.6; stroke-width: 2"/>
   </g>
   <g id="PathCollection_1">
    <defs>
     <path id="C0_0_34ad1931b2" d="M 0 10 
C 2.652031 10 5.195799 8.946337 7.071068 7.071068 
C 8.946337 5.195799 10 2.652031 10 -0 
C 10 -2.652031 8.946337 -5.195799 7.071068 -7.071068 
C 5.195799 -8.946337 2.652031 -10 0 -10 
C -2.652031 -10 -5.195799 -8.946337 -7.071068 -7.071068 
C -8.946337 -5.195799 -10 -2.652031 -10 0 
C -10 2.652031 -8.946337 5.195799 -7.071068 7.071068 
C -5.195799 8.946337 -2.652031 10 0 10 
z
"/>
    </defs>
    <g clip-path="url(#pf800886703)">
     <use xlink:href="#C0_0_34ad1931b2" x="69.230769" y="931.17619" style="fill: #1f77b4; stroke: #000000"/>
    </g>
    <g clip-path="url(#pf800886703)">
     <use xlink:href="#C0_0_34ad1931b2" x="69.230769" y="451.19757" style="fill: #ff7f0e; stroke: #000000"/>
    </g>
    <g clip-path="url(#pf800886703)">
     <use xlink:href="#C0_0_34ad1931b2" x="69.230769" y="743.168577" style="fill: #2ca02c; stroke: #000000"/>
    </g>
    <g clip-path="url(#pf800886703)">
     <use xlink:href="#C0_0_34ad1931b2" x="69.230769" y="154.614132" style="fill: #d62728; stroke: #000000"/>
    </g>
    <g clip-path="url(#pf800886703)">
     <use xlink:href="#C0_0_34ad1931b2" x="69.230769" y="59.263333" style="fill: #9467bd; stroke: #000000"/>
    </g>
    <g clip-path="url(#pf800886703)">
     <use xlink:href="#C0_0_34ad1931b2" x="69.230769" y="109.510265" style="fill: #8c564b; stroke: #000000"/>
    </g>
    <g clip-path="url(#pf800886703)">
     <use xlink:href="#C0_0_34ad1931b2" x="69.230769" y="260.251063" style="fill: #e377c2; stroke: #000000"/>
    </g>
    <g clip-path="url(#pf800886703)">
     <use xlink:href="#C0_0_34ad1931b2" x="69.230769" y="201.922171" style="fill: #7f7f7f; stroke: #000000"/>
    </g>
    <g clip-path="url(#pf800886703)">
     <use xlink:href="#C0_0_34ad1931b2" x="1309.846154" y="812.535017" style="fill: #bcbd22; stroke: #000000"/>
    </g>
    <g clip-path="url(#pf800886703)">
     <use xlink:href="#C0_0_34ad1931b2" x="1309.846154" y="445.989562" style="fill: #9edae5; stroke: #000000"/>
    </g>
   </g>
   <g id="PatchCollection_1">
    <path d="M 59.784459 969.381818 
L 78.677079 969.381818 
L 78.677079 892.970561 
L 59.784459 892.970561 
z
" clip-path="url(#pf800886703)" style="fill: #1f77b4; stroke: #000000"/>
    <path d="M 59.784459 593.366592 
L 78.677079 593.366592 
L 78.677079 309.028548 
L 59.784459 309.028548 
z
" clip-path="url(#pf800886703)" style="fill: #ff7f0e; stroke: #000000"/>
    <path d="M 59.784459 856.316015 
L 78.677079 856.316015 
L 78.677079 630.021138 
L 59.784459 630.021138 
z
" clip-path="url(#pf800886703)" style="fill: #2ca02c; stroke: #000000"/>
    <path d="M 59.784459 155.716218 
L 78.677079 155.716218 
L 78.677079 153.512047 
L 59.784459 153.512047 
z
" clip-path="url(#pf800886703)" style="fill: #d62728; stroke: #000000"/>
    <path d="M 59.784459 65.508483 
L 78.677079 65.508483 
L 78.677079 53.018182 
L 59.784459 53.018182 
z
" clip-path="url(#pf800886703)" style="fill: #9467bd; stroke: #000000"/>
    <path d="M 59.784459 116.857502 
L 78.677079 116.857502 
L 78.677079 102.163029 
L 59.784459 102.163029 
z
" clip-path="url(#pf800886703)" style="fill: #8c564b; stroke: #000000"/>
    <path d="M 59.784459 272.374003 
L 78.677079 272.374003 
L 78.677079 248.128123 
L 59.784459 248.128123 
z
" clip-path="url(#pf800886703)" style="fill: #e377c2; stroke: #000000"/>
    <path d="M 59.784459 211.473578 
L 78.677079 211.473578 
L 78.677079 192.370764 
L 59.784459 192.370764 
z
" clip-path="url(#pf800886703)" style="fill: #7f7f7f; stroke: #000000"/>
    <path d="M 1300.399844 950.663059 
L 1319.292464 950.663059 
L 1319.292464 674.406975 
L 1300.399844 674.406975 
z
" clip-path="url(#pf800886703)" style="fill: #bcbd22; stroke: #000000"/>
    <path d="M 1300.399844 637.752429 
L 1319.292464 637.752429 
L 1319.292464 254.226695 
L 1300.399844 254.226695 
z
" clip-path="url(#pf800886703)" style="fill: #9edae5; stroke: #000000"/>
   </g>
   <g id="text_1">
    <!-- no failure - 104 -->
    <g transform="translate(83.400234 936.69494)scale(0.2 -0.2)">
     <defs>
      <path id="DejaVuSans-6e" d="M 3513 2113 
L 3513 0 
L 2938 0 
L 2938 2094 
Q 2938 2591 2744 2837 
Q 2550 3084 2163 3084 
Q 1697 3084 1428 2787 
Q 1159 2491 1159 1978 
L 1159 0 
L 581 0 
L 581 3500 
L 1159 3500 
L 1159 2956 
Q 1366 3272 1645 3428 
Q 1925 3584 2291 3584 
Q 2894 3584 3203 3211 
Q 3513 2838 3513 2113 
z
" transform="scale(0.015625)"/>
      <path id="DejaVuSans-6f" d="M 1959 3097 
Q 1497 3097 1228 2736 
Q 959 2375 959 1747 
Q 959 1119 1226 758 
Q 1494 397 1959 397 
Q 2419 397 2687 759 
Q 2956 1122 2956 1747 
Q 2956 2369 2687 2733 
Q 2419 3097 1959 3097 
z
M 1959 3584 
Q 2709 3584 3137 3096 
Q 3566 2609 3566 1747 
Q 3566 888 3137 398 
Q 2709 -91 1959 -91 
Q 1206 -91 779 398 
Q 353 888 353 1747 
Q 353 2609 779 3096 
Q 1206 3584 1959 3584 
z
" transform="scale(0.015625)"/>
      <path id="DejaVuSans-20" transform="scale(0.015625)"/>
      <path id="DejaVuSans-66" d="M 2375 4863 
L 2375 4384 
L 1825 4384 
Q 1516 4384 1395 4259 
Q 1275 4134 1275 3809 
L 1275 3500 
L 2222 3500 
L 2222 3053 
L 1275 3053 
L 1275 0 
L 697 0 
L 697 3053 
L 147 3053 
L 147 3500 
L 697 3500 
L 697 3744 
Q 697 4328 969 4595 
Q 1241 4863 1831 4863 
L 2375 4863 
z
" transform="scale(0.015625)"/>
      <path id="DejaVuSans-61" d="M 2194 1759 
Q 1497 1759 1228 1600 
Q 959 1441 959 1056 
Q 959 750 1161 570 
Q 1363 391 1709 391 
Q 2188 391 2477 730 
Q 2766 1069 2766 1631 
L 2766 1759 
L 2194 1759 
z
M 3341 1997 
L 3341 0 
L 2766 0 
L 2766 531 
Q 2569 213 2275 61 
Q 1981 -91 1556 -91 
Q 1019 -91 701 211 
Q 384 513 384 1019 
Q 384 1609 779 1909 
Q 1175 2209 1959 2209 
L 2766 2209 
L 2766 2266 
Q 2766 2663 2505 2880 
Q 2244 3097 1772 3097 
Q 1472 3097 1187 3025 
Q 903 2953 641 2809 
L 641 3341 
Q 956 3463 1253 3523 
Q 1550 3584 1831 3584 
Q 2591 3584 2966 3190 
Q 3341 2797 3341 1997 
z
" transform="scale(0.015625)"/>
      <path id="DejaVuSans-69" d="M 603 3500 
L 1178 3500 
L 1178 0 
L 603 0 
L 603 3500 
z
M 603 4863 
L 1178 4863 
L 1178 4134 
L 603 4134 
L 603 4863 
z
" transform="scale(0.015625)"/>
      <path id="DejaVuSans-6c" d="M 603 4863 
L 1178 4863 
L 1178 0 
L 603 0 
L 603 4863 
z
" transform="scale(0.015625)"/>
      <path id="DejaVuSans-75" d="M 544 1381 
L 544 3500 
L 1119 3500 
L 1119 1403 
Q 1119 906 1312 657 
Q 1506 409 1894 409 
Q 2359 409 2629 706 
Q 2900 1003 2900 1516 
L 2900 3500 
L 3475 3500 
L 3475 0 
L 2900 0 
L 2900 538 
Q 2691 219 2414 64 
Q 2138 -91 1772 -91 
Q 1169 -91 856 284 
Q 544 659 544 1381 
z
M 1991 3584 
L 1991 3584 
z
" transform="scale(0.015625)"/>
      <path id="DejaVuSans-72" d="M 2631 2963 
Q 2534 3019 2420 3045 
Q 2306 3072 2169 3072 
Q 1681 3072 1420 2755 
Q 1159 2438 1159 1844 
L 1159 0 
L 581 0 
L 581 3500 
L 1159 3500 
L 1159 2956 
Q 1341 3275 1631 3429 
Q 1922 3584 2338 3584 
Q 2397 3584 2469 3576 
Q 2541 3569 2628 3553 
L 2631 2963 
z
" transform="scale(0.015625)"/>
      <path id="DejaVuSans-65" d="M 3597 1894 
L 3597 1613 
L 953 1613 
Q 991 1019 1311 708 
Q 1631 397 2203 397 
Q 2534 397 2845 478 
Q 3156 559 3463 722 
L 3463 178 
Q 3153 47 2828 -22 
Q 2503 -91 2169 -91 
Q 1331 -91 842 396 
Q 353 884 353 1716 
Q 353 2575 817 3079 
Q 1281 3584 2069 3584 
Q 2775 3584 3186 3129 
Q 3597 2675 3597 1894 
z
M 3022 2063 
Q 3016 2534 2758 2815 
Q 2500 3097 2075 3097 
Q 1594 3097 1305 2825 
Q 1016 2553 972 2059 
L 3022 2063 
z
" transform="scale(0.015625)"/>
      <path id="DejaVuSans-2d" d="M 313 2009 
L 1997 2009 
L 1997 1497 
L 313 1497 
L 313 2009 
z
" transform="scale(0.015625)"/>
      <path id="DejaVuSans-31" d="M 794 531 
L 1825 531 
L 1825 4091 
L 703 3866 
L 703 4441 
L 1819 4666 
L 2450 4666 
L 2450 531 
L 3481 531 
L 3481 0 
L 794 0 
L 794 531 
z
" transform="scale(0.015625)"/>
      <path id="DejaVuSans-30" d="M 2034 4250 
Q 1547 4250 1301 3770 
Q 1056 3291 1056 2328 
Q 1056 1369 1301 889 
Q 1547 409 2034 409 
Q 2525 409 2770 889 
Q 3016 1369 3016 2328 
Q 3016 3291 2770 3770 
Q 2525 4250 2034 4250 
z
M 2034 4750 
Q 2819 4750 3233 4129 
Q 3647 3509 3647 2328 
Q 3647 1150 3233 529 
Q 2819 -91 2034 -91 
Q 1250 -91 836 529 
Q 422 1150 422 2328 
Q 422 3509 836 4129 
Q 1250 4750 2034 4750 
z
" transform="scale(0.015625)"/>
      <path id="DejaVuSans-34" d="M 2419 4116 
L 825 1625 
L 2419 1625 
L 2419 4116 
z
M 2253 4666 
L 3047 4666 
L 3047 1625 
L 3713 1625 
L 3713 1100 
L 3047 1100 
L 3047 0 
L 2419 0 
L 2419 1100 
L 313 1100 
L 313 1709 
L 2253 4666 
z
" transform="scale(0.015625)"/>
     </defs>
     <use xlink:href="#DejaVuSans-6e"/>
     <use xlink:href="#DejaVuSans-6f" x="63.378906"/>
     <use xlink:href="#DejaVuSans-20" x="124.560547"/>
     <use xlink:href="#DejaVuSans-66" x="156.347656"/>
     <use xlink:href="#DejaVuSans-61" x="191.552734"/>
     <use xlink:href="#DejaVuSans-69" x="252.832031"/>
     <use xlink:href="#DejaVuSans-6c" x="280.615234"/>
     <use xlink:href="#DejaVuSans-75" x="308.398438"/>
     <use xlink:href="#DejaVuSans-72" x="371.777344"/>
     <use xlink:href="#DejaVuSans-65" x="410.640625"/>
     <use xlink:href="#DejaVuSans-20" x="472.164062"/>
     <use xlink:href="#DejaVuSans-2d" x="503.951172"/>
     <use xlink:href="#DejaVuSans-20" x="540.035156"/>
     <use xlink:href="#DejaVuSans-31" x="571.822266"/>
     <use xlink:href="#DejaVuSans-30" x="635.445312"/>
     <use xlink:href="#DejaVuSans-34" x="699.068359"/>
    </g>
   </g>
   <g id="text_2">
    <!-- perception - 387 -->
    <g transform="translate(83.400234 456.71632)scale(0.2 -0.2)">
     <defs>
      <path id="DejaVuSans-70" d="M 1159 525 
L 1159 -1331 
L 581 -1331 
L 581 3500 
L 1159 3500 
L 1159 2969 
Q 1341 3281 1617 3432 
Q 1894 3584 2278 3584 
Q 2916 3584 3314 3078 
Q 3713 2572 3713 1747 
Q 3713 922 3314 415 
Q 2916 -91 2278 -91 
Q 1894 -91 1617 61 
Q 1341 213 1159 525 
z
M 3116 1747 
Q 3116 2381 2855 2742 
Q 2594 3103 2138 3103 
Q 1681 3103 1420 2742 
Q 1159 2381 1159 1747 
Q 1159 1113 1420 752 
Q 1681 391 2138 391 
Q 2594 391 2855 752 
Q 3116 1113 3116 1747 
z
" transform="scale(0.015625)"/>
      <path id="DejaVuSans-63" d="M 3122 3366 
L 3122 2828 
Q 2878 2963 2633 3030 
Q 2388 3097 2138 3097 
Q 1578 3097 1268 2742 
Q 959 2388 959 1747 
Q 959 1106 1268 751 
Q 1578 397 2138 397 
Q 2388 397 2633 464 
Q 2878 531 3122 666 
L 3122 134 
Q 2881 22 2623 -34 
Q 2366 -91 2075 -91 
Q 1284 -91 818 406 
Q 353 903 353 1747 
Q 353 2603 823 3093 
Q 1294 3584 2113 3584 
Q 2378 3584 2631 3529 
Q 2884 3475 3122 3366 
z
" transform="scale(0.015625)"/>
      <path id="DejaVuSans-74" d="M 1172 4494 
L 1172 3500 
L 2356 3500 
L 2356 3053 
L 1172 3053 
L 1172 1153 
Q 1172 725 1289 603 
Q 1406 481 1766 481 
L 2356 481 
L 2356 0 
L 1766 0 
Q 1100 0 847 248 
Q 594 497 594 1153 
L 594 3053 
L 172 3053 
L 172 3500 
L 594 3500 
L 594 4494 
L 1172 4494 
z
" transform="scale(0.015625)"/>
      <path id="DejaVuSans-33" d="M 2597 2516 
Q 3050 2419 3304 2112 
Q 3559 1806 3559 1356 
Q 3559 666 3084 287 
Q 2609 -91 1734 -91 
Q 1441 -91 1130 -33 
Q 819 25 488 141 
L 488 750 
Q 750 597 1062 519 
Q 1375 441 1716 441 
Q 2309 441 2620 675 
Q 2931 909 2931 1356 
Q 2931 1769 2642 2001 
Q 2353 2234 1838 2234 
L 1294 2234 
L 1294 2753 
L 1863 2753 
Q 2328 2753 2575 2939 
Q 2822 3125 2822 3475 
Q 2822 3834 2567 4026 
Q 2313 4219 1838 4219 
Q 1578 4219 1281 4162 
Q 984 4106 628 3988 
L 628 4550 
Q 988 4650 1302 4700 
Q 1616 4750 1894 4750 
Q 2613 4750 3031 4423 
Q 3450 4097 3450 3541 
Q 3450 3153 3228 2886 
Q 3006 2619 2597 2516 
z
" transform="scale(0.015625)"/>
      <path id="DejaVuSans-38" d="M 2034 2216 
Q 1584 2216 1326 1975 
Q 1069 1734 1069 1313 
Q 1069 891 1326 650 
Q 1584 409 2034 409 
Q 2484 409 2743 651 
Q 3003 894 3003 1313 
Q 3003 1734 2745 1975 
Q 2488 2216 2034 2216 
z
M 1403 2484 
Q 997 2584 770 2862 
Q 544 3141 544 3541 
Q 544 4100 942 4425 
Q 1341 4750 2034 4750 
Q 2731 4750 3128 4425 
Q 3525 4100 3525 3541 
Q 3525 3141 3298 2862 
Q 3072 2584 2669 2484 
Q 3125 2378 3379 2068 
Q 3634 1759 3634 1313 
Q 3634 634 3220 271 
Q 2806 -91 2034 -91 
Q 1263 -91 848 271 
Q 434 634 434 1313 
Q 434 1759 690 2068 
Q 947 2378 1403 2484 
z
M 1172 3481 
Q 1172 3119 1398 2916 
Q 1625 2713 2034 2713 
Q 2441 2713 2670 2916 
Q 2900 3119 2900 3481 
Q 2900 3844 2670 4047 
Q 2441 4250 2034 4250 
Q 1625 4250 1398 4047 
Q 1172 3844 1172 3481 
z
" transform="scale(0.015625)"/>
      <path id="DejaVuSans-37" d="M 525 4666 
L 3525 4666 
L 3525 4397 
L 1831 0 
L 1172 0 
L 2766 4134 
L 525 4134 
L 525 4666 
z
" transform="scale(0.015625)"/>
     </defs>
     <use xlink:href="#DejaVuSans-70"/>
     <use xlink:href="#DejaVuSans-65" x="63.476562"/>
     <use xlink:href="#DejaVuSans-72" x="125"/>
     <use xlink:href="#DejaVuSans-63" x="163.863281"/>
     <use xlink:href="#DejaVuSans-65" x="218.84375"/>
     <use xlink:href="#DejaVuSans-70" x="280.367188"/>
     <use xlink:href="#DejaVuSans-74" x="343.84375"/>
     <use xlink:href="#DejaVuSans-69" x="383.052734"/>
     <use xlink:href="#DejaVuSans-6f" x="410.835938"/>
     <use xlink:href="#DejaVuSans-6e" x="472.017578"/>
     <use xlink:href="#DejaVuSans-20" x="535.396484"/>
     <use xlink:href="#DejaVuSans-2d" x="567.183594"/>
     <use xlink:href="#DejaVuSans-20" x="603.267578"/>
     <use xlink:href="#DejaVuSans-33" x="635.054688"/>
     <use xlink:href="#DejaVuSans-38" x="698.677734"/>
     <use xlink:href="#DejaVuSans-37" x="762.300781"/>
    </g>
   </g>
   <g id="text_3">
    <!-- prediction - 308 -->
    <g transform="translate(83.400234 748.687327)scale(0.2 -0.2)">
     <defs>
      <path id="DejaVuSans-64" d="M 2906 2969 
L 2906 4863 
L 3481 4863 
L 3481 0 
L 2906 0 
L 2906 525 
Q 2725 213 2448 61 
Q 2172 -91 1784 -91 
Q 1150 -91 751 415 
Q 353 922 353 1747 
Q 353 2572 751 3078 
Q 1150 3584 1784 3584 
Q 2172 3584 2448 3432 
Q 2725 3281 2906 2969 
z
M 947 1747 
Q 947 1113 1208 752 
Q 1469 391 1925 391 
Q 2381 391 2643 752 
Q 2906 1113 2906 1747 
Q 2906 2381 2643 2742 
Q 2381 3103 1925 3103 
Q 1469 3103 1208 2742 
Q 947 2381 947 1747 
z
" transform="scale(0.015625)"/>
     </defs>
     <use xlink:href="#DejaVuSans-70"/>
     <use xlink:href="#DejaVuSans-72" x="63.476562"/>
     <use xlink:href="#DejaVuSans-65" x="102.339844"/>
     <use xlink:href="#DejaVuSans-64" x="163.863281"/>
     <use xlink:href="#DejaVuSans-69" x="227.339844"/>
     <use xlink:href="#DejaVuSans-63" x="255.123047"/>
     <use xlink:href="#DejaVuSans-74" x="310.103516"/>
     <use xlink:href="#DejaVuSans-69" x="349.3125"/>
     <use xlink:href="#DejaVuSans-6f" x="377.095703"/>
     <use xlink:href="#DejaVuSans-6e" x="438.277344"/>
     <use xlink:href="#DejaVuSans-20" x="501.65625"/>
     <use xlink:href="#DejaVuSans-2d" x="533.443359"/>
     <use xlink:href="#DejaVuSans-20" x="569.527344"/>
     <use xlink:href="#DejaVuSans-33" x="601.314453"/>
     <use xlink:href="#DejaVuSans-30" x="664.9375"/>
     <use xlink:href="#DejaVuSans-38" x="728.560547"/>
    </g>
   </g>
   <g id="text_4">
    <!-- perception and prediction - 3 -->
    <g transform="translate(83.400234 160.132882)scale(0.2 -0.2)">
     <use xlink:href="#DejaVuSans-70"/>
     <use xlink:href="#DejaVuSans-65" x="63.476562"/>
     <use xlink:href="#DejaVuSans-72" x="125"/>
     <use xlink:href="#DejaVuSans-63" x="163.863281"/>
     <use xlink:href="#DejaVuSans-65" x="218.84375"/>
     <use xlink:href="#DejaVuSans-70" x="280.367188"/>
     <use xlink:href="#DejaVuSans-74" x="343.84375"/>
     <use xlink:href="#DejaVuSans-69" x="383.052734"/>
     <use xlink:href="#DejaVuSans-6f" x="410.835938"/>
     <use xlink:href="#DejaVuSans-6e" x="472.017578"/>
     <use xlink:href="#DejaVuSans-20" x="535.396484"/>
     <use xlink:href="#DejaVuSans-61" x="567.183594"/>
     <use xlink:href="#DejaVuSans-6e" x="628.462891"/>
     <use xlink:href="#DejaVuSans-64" x="691.841797"/>
     <use xlink:href="#DejaVuSans-20" x="755.318359"/>
     <use xlink:href="#DejaVuSans-70" x="787.105469"/>
     <use xlink:href="#DejaVuSans-72" x="850.582031"/>
     <use xlink:href="#DejaVuSans-65" x="889.445312"/>
     <use xlink:href="#DejaVuSans-64" x="950.96875"/>
     <use xlink:href="#DejaVuSans-69" x="1014.445312"/>
     <use xlink:href="#DejaVuSans-63" x="1042.228516"/>
     <use xlink:href="#DejaVuSans-74" x="1097.208984"/>
     <use xlink:href="#DejaVuSans-69" x="1136.417969"/>
     <use xlink:href="#DejaVuSans-6f" x="1164.201172"/>
     <use xlink:href="#DejaVuSans-6e" x="1225.382812"/>
     <use xlink:href="#DejaVuSans-20" x="1288.761719"/>
     <use xlink:href="#DejaVuSans-2d" x="1320.548828"/>
     <use xlink:href="#DejaVuSans-20" x="1356.632812"/>
     <use xlink:href="#DejaVuSans-33" x="1388.419922"/>
    </g>
   </g>
   <g id="text_5">
    <!-- planning - 17 -->
    <g transform="translate(83.400234 64.782083)scale(0.2 -0.2)">
     <defs>
      <path id="DejaVuSans-67" d="M 2906 1791 
Q 2906 2416 2648 2759 
Q 2391 3103 1925 3103 
Q 1463 3103 1205 2759 
Q 947 2416 947 1791 
Q 947 1169 1205 825 
Q 1463 481 1925 481 
Q 2391 481 2648 825 
Q 2906 1169 2906 1791 
z
M 3481 434 
Q 3481 -459 3084 -895 
Q 2688 -1331 1869 -1331 
Q 1566 -1331 1297 -1286 
Q 1028 -1241 775 -1147 
L 775 -588 
Q 1028 -725 1275 -790 
Q 1522 -856 1778 -856 
Q 2344 -856 2625 -561 
Q 2906 -266 2906 331 
L 2906 616 
Q 2728 306 2450 153 
Q 2172 0 1784 0 
Q 1141 0 747 490 
Q 353 981 353 1791 
Q 353 2603 747 3093 
Q 1141 3584 1784 3584 
Q 2172 3584 2450 3431 
Q 2728 3278 2906 2969 
L 2906 3500 
L 3481 3500 
L 3481 434 
z
" transform="scale(0.015625)"/>
     </defs>
     <use xlink:href="#DejaVuSans-70"/>
     <use xlink:href="#DejaVuSans-6c" x="63.476562"/>
     <use xlink:href="#DejaVuSans-61" x="91.259766"/>
     <use xlink:href="#DejaVuSans-6e" x="152.539062"/>
     <use xlink:href="#DejaVuSans-6e" x="215.917969"/>
     <use xlink:href="#DejaVuSans-69" x="279.296875"/>
     <use xlink:href="#DejaVuSans-6e" x="307.080078"/>
     <use xlink:href="#DejaVuSans-67" x="370.458984"/>
     <use xlink:href="#DejaVuSans-20" x="433.935547"/>
     <use xlink:href="#DejaVuSans-2d" x="465.722656"/>
     <use xlink:href="#DejaVuSans-20" x="501.806641"/>
     <use xlink:href="#DejaVuSans-31" x="533.59375"/>
     <use xlink:href="#DejaVuSans-37" x="597.216797"/>
    </g>
   </g>
   <g id="text_6">
    <!-- perception and planning - 20 -->
    <g transform="translate(83.400234 115.029015)scale(0.2 -0.2)">
     <defs>
      <path id="DejaVuSans-32" d="M 1228 531 
L 3431 531 
L 3431 0 
L 469 0 
L 469 531 
Q 828 903 1448 1529 
Q 2069 2156 2228 2338 
Q 2531 2678 2651 2914 
Q 2772 3150 2772 3378 
Q 2772 3750 2511 3984 
Q 2250 4219 1831 4219 
Q 1534 4219 1204 4116 
Q 875 4013 500 3803 
L 500 4441 
Q 881 4594 1212 4672 
Q 1544 4750 1819 4750 
Q 2544 4750 2975 4387 
Q 3406 4025 3406 3419 
Q 3406 3131 3298 2873 
Q 3191 2616 2906 2266 
Q 2828 2175 2409 1742 
Q 1991 1309 1228 531 
z
" transform="scale(0.015625)"/>
     </defs>
     <use xlink:href="#DejaVuSans-70"/>
     <use xlink:href="#DejaVuSans-65" x="63.476562"/>
     <use xlink:href="#DejaVuSans-72" x="125"/>
     <use xlink:href="#DejaVuSans-63" x="163.863281"/>
     <use xlink:href="#DejaVuSans-65" x="218.84375"/>
     <use xlink:href="#DejaVuSans-70" x="280.367188"/>
     <use xlink:href="#DejaVuSans-74" x="343.84375"/>
     <use xlink:href="#DejaVuSans-69" x="383.052734"/>
     <use xlink:href="#DejaVuSans-6f" x="410.835938"/>
     <use xlink:href="#DejaVuSans-6e" x="472.017578"/>
     <use xlink:href="#DejaVuSans-20" x="535.396484"/>
     <use xlink:href="#DejaVuSans-61" x="567.183594"/>
     <use xlink:href="#DejaVuSans-6e" x="628.462891"/>
     <use xlink:href="#DejaVuSans-64" x="691.841797"/>
     <use xlink:href="#DejaVuSans-20" x="755.318359"/>
     <use xlink:href="#DejaVuSans-70" x="787.105469"/>
     <use xlink:href="#DejaVuSans-6c" x="850.582031"/>
     <use xlink:href="#DejaVuSans-61" x="878.365234"/>
     <use xlink:href="#DejaVuSans-6e" x="939.644531"/>
     <use xlink:href="#DejaVuSans-6e" x="1003.023438"/>
     <use xlink:href="#DejaVuSans-69" x="1066.402344"/>
     <use xlink:href="#DejaVuSans-6e" x="1094.185547"/>
     <use xlink:href="#DejaVuSans-67" x="1157.564453"/>
     <use xlink:href="#DejaVuSans-20" x="1221.041016"/>
     <use xlink:href="#DejaVuSans-2d" x="1252.828125"/>
     <use xlink:href="#DejaVuSans-20" x="1288.912109"/>
     <use xlink:href="#DejaVuSans-32" x="1320.699219"/>
     <use xlink:href="#DejaVuSans-30" x="1384.322266"/>
    </g>
   </g>
   <g id="text_7">
    <!-- prediction and planning - 33 -->
    <g transform="translate(83.400234 265.769813)scale(0.2 -0.2)">
     <use xlink:href="#DejaVuSans-70"/>
     <use xlink:href="#DejaVuSans-72" x="63.476562"/>
     <use xlink:href="#DejaVuSans-65" x="102.339844"/>
     <use xlink:href="#DejaVuSans-64" x="163.863281"/>
     <use xlink:href="#DejaVuSans-69" x="227.339844"/>
     <use xlink:href="#DejaVuSans-63" x="255.123047"/>
     <use xlink:href="#DejaVuSans-74" x="310.103516"/>
     <use xlink:href="#DejaVuSans-69" x="349.3125"/>
     <use xlink:href="#DejaVuSans-6f" x="377.095703"/>
     <use xlink:href="#DejaVuSans-6e" x="438.277344"/>
     <use xlink:href="#DejaVuSans-20" x="501.65625"/>
     <use xlink:href="#DejaVuSans-61" x="533.443359"/>
     <use xlink:href="#DejaVuSans-6e" x="594.722656"/>
     <use xlink:href="#DejaVuSans-64" x="658.101562"/>
     <use xlink:href="#DejaVuSans-20" x="721.578125"/>
     <use xlink:href="#DejaVuSans-70" x="753.365234"/>
     <use xlink:href="#DejaVuSans-6c" x="816.841797"/>
     <use xlink:href="#DejaVuSans-61" x="844.625"/>
     <use xlink:href="#DejaVuSans-6e" x="905.904297"/>
     <use xlink:href="#DejaVuSans-6e" x="969.283203"/>
     <use xlink:href="#DejaVuSans-69" x="1032.662109"/>
     <use xlink:href="#DejaVuSans-6e" x="1060.445312"/>
     <use xlink:href="#DejaVuSans-67" x="1123.824219"/>
     <use xlink:href="#DejaVuSans-20" x="1187.300781"/>
     <use xlink:href="#DejaVuSans-2d" x="1219.087891"/>
     <use xlink:href="#DejaVuSans-20" x="1255.171875"/>
     <use xlink:href="#DejaVuSans-33" x="1286.958984"/>
     <use xlink:href="#DejaVuSans-33" x="1350.582031"/>
    </g>
   </g>
   <g id="text_8">
    <!-- perception, prediction and planning - 26 -->
    <g transform="translate(83.400234 207.440921)scale(0.2 -0.2)">
     <defs>
      <path id="DejaVuSans-2c" d="M 750 794 
L 1409 794 
L 1409 256 
L 897 -744 
L 494 -744 
L 750 256 
L 750 794 
z
" transform="scale(0.015625)"/>
      <path id="DejaVuSans-36" d="M 2113 2584 
Q 1688 2584 1439 2293 
Q 1191 2003 1191 1497 
Q 1191 994 1439 701 
Q 1688 409 2113 409 
Q 2538 409 2786 701 
Q 3034 994 3034 1497 
Q 3034 2003 2786 2293 
Q 2538 2584 2113 2584 
z
M 3366 4563 
L 3366 3988 
Q 3128 4100 2886 4159 
Q 2644 4219 2406 4219 
Q 1781 4219 1451 3797 
Q 1122 3375 1075 2522 
Q 1259 2794 1537 2939 
Q 1816 3084 2150 3084 
Q 2853 3084 3261 2657 
Q 3669 2231 3669 1497 
Q 3669 778 3244 343 
Q 2819 -91 2113 -91 
Q 1303 -91 875 529 
Q 447 1150 447 2328 
Q 447 3434 972 4092 
Q 1497 4750 2381 4750 
Q 2619 4750 2861 4703 
Q 3103 4656 3366 4563 
z
" transform="scale(0.015625)"/>
     </defs>
     <use xlink:href="#DejaVuSans-70"/>
     <use xlink:href="#DejaVuSans-65" x="63.476562"/>
     <use xlink:href="#DejaVuSans-72" x="125"/>
     <use xlink:href="#DejaVuSans-63" x="163.863281"/>
     <use xlink:href="#DejaVuSans-65" x="218.84375"/>
     <use xlink:href="#DejaVuSans-70" x="280.367188"/>
     <use xlink:href="#DejaVuSans-74" x="343.84375"/>
     <use xlink:href="#DejaVuSans-69" x="383.052734"/>
     <use xlink:href="#DejaVuSans-6f" x="410.835938"/>
     <use xlink:href="#DejaVuSans-6e" x="472.017578"/>
     <use xlink:href="#DejaVuSans-2c" x="535.396484"/>
     <use xlink:href="#DejaVuSans-20" x="567.183594"/>
     <use xlink:href="#DejaVuSans-70" x="598.970703"/>
     <use xlink:href="#DejaVuSans-72" x="662.447266"/>
     <use xlink:href="#DejaVuSans-65" x="701.310547"/>
     <use xlink:href="#DejaVuSans-64" x="762.833984"/>
     <use xlink:href="#DejaVuSans-69" x="826.310547"/>
     <use xlink:href="#DejaVuSans-63" x="854.09375"/>
     <use xlink:href="#DejaVuSans-74" x="909.074219"/>
     <use xlink:href="#DejaVuSans-69" x="948.283203"/>
     <use xlink:href="#DejaVuSans-6f" x="976.066406"/>
     <use xlink:href="#DejaVuSans-6e" x="1037.248047"/>
     <use xlink:href="#DejaVuSans-20" x="1100.626953"/>
     <use xlink:href="#DejaVuSans-61" x="1132.414062"/>
     <use xlink:href="#DejaVuSans-6e" x="1193.693359"/>
     <use xlink:href="#DejaVuSans-64" x="1257.072266"/>
     <use xlink:href="#DejaVuSans-20" x="1320.548828"/>
     <use xlink:href="#DejaVuSans-70" x="1352.335938"/>
     <use xlink:href="#DejaVuSans-6c" x="1415.8125"/>
     <use xlink:href="#DejaVuSans-61" x="1443.595703"/>
     <use xlink:href="#DejaVuSans-6e" x="1504.875"/>
     <use xlink:href="#DejaVuSans-6e" x="1568.253906"/>
     <use xlink:href="#DejaVuSans-69" x="1631.632812"/>
     <use xlink:href="#DejaVuSans-6e" x="1659.416016"/>
     <use xlink:href="#DejaVuSans-67" x="1722.794922"/>
     <use xlink:href="#DejaVuSans-20" x="1786.271484"/>
     <use xlink:href="#DejaVuSans-2d" x="1818.058594"/>
     <use xlink:href="#DejaVuSans-20" x="1854.142578"/>
     <use xlink:href="#DejaVuSans-32" x="1885.929688"/>
     <use xlink:href="#DejaVuSans-36" x="1949.552734"/>
    </g>
   </g>
   <g id="text_9">
    <!-- collision - 376 -->
    <g transform="translate(1324.015619 818.053767)scale(0.2 -0.2)">
     <defs>
      <path id="DejaVuSans-73" d="M 2834 3397 
L 2834 2853 
Q 2591 2978 2328 3040 
Q 2066 3103 1784 3103 
Q 1356 3103 1142 2972 
Q 928 2841 928 2578 
Q 928 2378 1081 2264 
Q 1234 2150 1697 2047 
L 1894 2003 
Q 2506 1872 2764 1633 
Q 3022 1394 3022 966 
Q 3022 478 2636 193 
Q 2250 -91 1575 -91 
Q 1294 -91 989 -36 
Q 684 19 347 128 
L 347 722 
Q 666 556 975 473 
Q 1284 391 1588 391 
Q 1994 391 2212 530 
Q 2431 669 2431 922 
Q 2431 1156 2273 1281 
Q 2116 1406 1581 1522 
L 1381 1569 
Q 847 1681 609 1914 
Q 372 2147 372 2553 
Q 372 3047 722 3315 
Q 1072 3584 1716 3584 
Q 2034 3584 2315 3537 
Q 2597 3491 2834 3397 
z
" transform="scale(0.015625)"/>
     </defs>
     <use xlink:href="#DejaVuSans-63"/>
     <use xlink:href="#DejaVuSans-6f" x="54.980469"/>
     <use xlink:href="#DejaVuSans-6c" x="116.162109"/>
     <use xlink:href="#DejaVuSans-6c" x="143.945312"/>
     <use xlink:href="#DejaVuSans-69" x="171.728516"/>
     <use xlink:href="#DejaVuSans-73" x="199.511719"/>
     <use xlink:href="#DejaVuSans-69" x="251.611328"/>
     <use xlink:href="#DejaVuSans-6f" x="279.394531"/>
     <use xlink:href="#DejaVuSans-6e" x="340.576172"/>
     <use xlink:href="#DejaVuSans-20" x="403.955078"/>
     <use xlink:href="#DejaVuSans-2d" x="435.742188"/>
     <use xlink:href="#DejaVuSans-20" x="471.826172"/>
     <use xlink:href="#DejaVuSans-33" x="503.613281"/>
     <use xlink:href="#DejaVuSans-37" x="567.236328"/>
     <use xlink:href="#DejaVuSans-36" x="630.859375"/>
    </g>
   </g>
   <g id="text_10">
    <!-- safe - 522 -->
    <g transform="translate(1324.015619 451.508312)scale(0.2 -0.2)">
     <defs>
      <path id="DejaVuSans-35" d="M 691 4666 
L 3169 4666 
L 3169 4134 
L 1269 4134 
L 1269 2991 
Q 1406 3038 1543 3061 
Q 1681 3084 1819 3084 
Q 2600 3084 3056 2656 
Q 3513 2228 3513 1497 
Q 3513 744 3044 326 
Q 2575 -91 1722 -91 
Q 1428 -91 1123 -41 
Q 819 9 494 109 
L 494 744 
Q 775 591 1075 516 
Q 1375 441 1709 441 
Q 2250 441 2565 725 
Q 2881 1009 2881 1497 
Q 2881 1984 2565 2268 
Q 2250 2553 1709 2553 
Q 1456 2553 1204 2497 
Q 953 2441 691 2322 
L 691 4666 
z
" transform="scale(0.015625)"/>
     </defs>
     <use xlink:href="#DejaVuSans-73"/>
     <use xlink:href="#DejaVuSans-61" x="52.099609"/>
     <use xlink:href="#DejaVuSans-66" x="113.378906"/>
     <use xlink:href="#DejaVuSans-65" x="148.583984"/>
     <use xlink:href="#DejaVuSans-20" x="210.107422"/>
     <use xlink:href="#DejaVuSans-2d" x="241.894531"/>
     <use xlink:href="#DejaVuSans-20" x="277.978516"/>
     <use xlink:href="#DejaVuSans-35" x="309.765625"/>
     <use xlink:href="#DejaVuSans-32" x="373.388672"/>
     <use xlink:href="#DejaVuSans-32" x="437.011719"/>
    </g>
   </g>
  </g>
 </g>
 <defs>
  <clipPath id="pf800886703">
   <rect x="7.2" y="7.2" width="1612.8" height="1008"/>
  </clipPath>
 </defs>
</svg>
