<?xml version="1.0" encoding="utf-8" standalone="no"?>
<!DOCTYPE svg PUBLIC "-//W3C//DTD SVG 1.1//EN"
  "http://www.w3.org/Graphics/SVG/1.1/DTD/svg11.dtd">
<svg xmlns:xlink="http://www.w3.org/1999/xlink" width="1627.2pt" height="1022.4pt" viewBox="0 0 1627.2 1022.4" xmlns="http://www.w3.org/2000/svg" version="1.1">
 <metadata>
  <rdf:RDF xmlns:dc="http://purl.org/dc/elements/1.1/" xmlns:cc="http://creativecommons.org/ns#" xmlns:rdf="http://www.w3.org/1999/02/22-rdf-syntax-ns#">
   <cc:Work>
    <dc:type rdf:resource="http://purl.org/dc/dcmitype/StillImage"/>
    <dc:date>2024-08-13T07:02:02.784600</dc:date>
    <dc:format>image/svg+xml</dc:format>
    <dc:creator>
     <cc:Agent>
      <dc:title>Matplotlib v3.5.2, https://matplotlib.org/</dc:title>
     </cc:Agent>
    </dc:creator>
   </cc:Work>
  </rdf:RDF>
 </metadata>
 <defs>
  <style type="text/css">*{stroke-linejoin: round; stroke-linecap: butt}</style>
 </defs>
 <g id="figure_1">
  <g id="patch_1">
   <path d="M 0 1022.4 
L 1627.2 1022.4 
L 1627.2 0 
L 0 0 
z
" style="fill: #ffffff"/>
  </g>
  <g id="axes_1">
   <g id="patch_2">
    <path d="M 7.2 1015.2 
L 1620 1015.2 
L 1620 7.2 
L 7.2 7.2 
z
" style="fill: #ffffff"/>
   </g>
   <g id="PolyCollection_1">
    <path d="M 78.677079 400.166199 
L 78.677079 969.381818 
L 78.677079 969.381818 
L 115.323882 969.381818 
L 150.506473 969.381818 
L 184.287161 969.381818 
L 216.728252 969.381818 
L 247.892053 969.381818 
L 277.840871 969.381818 
L 306.637012 969.381818 
L 334.342784 969.381818 
L 361.020493 969.381818 
L 386.732446 969.381818 
L 411.54095 969.381818 
L 435.508311 969.381818 
L 458.696838 969.381818 
L 481.168836 969.381818 
L 502.986612 969.381818 
L 524.212473 969.381818 
L 544.908726 969.381818 
L 565.137677 969.381818 
L 584.961635 969.381818 
L 604.442904 969.381818 
L 623.643793 969.381818 
L 642.626609 969.381818 
L 661.453657 969.381818 
L 680.187244 969.381818 
L 698.889679 969.381818 
L 717.623266 969.381818 
L 736.450314 969.381818 
L 755.43313 969.381818 
L 774.634019 969.381818 
L 794.115288 969.381818 
L 813.939246 969.381818 
L 834.168197 969.381818 
L 854.86445 969.381818 
L 876.090312 969.381818 
L 897.908088 969.381818 
L 920.380085 969.381818 
L 943.568612 969.381818 
L 967.535973 969.381818 
L 992.344477 969.381818 
L 1018.05643 969.381818 
L 1044.734139 969.381818 
L 1072.439911 969.381818 
L 1101.236052 969.381818 
L 1131.18487 969.381818 
L 1162.348671 969.381818 
L 1194.789762 969.381818 
L 1228.57045 969.381818 
L 1263.753042 969.381818 
L 1300.399844 969.381818 
L 1300.399844 969.381818 
L 1300.399844 400.166199 
L 1300.399844 400.166199 
L 1263.753042 400.166199 
L 1228.57045 400.166199 
L 1194.789762 400.166199 
L 1162.348671 400.166199 
L 1131.18487 400.166199 
L 1101.236052 400.166199 
L 1072.439911 400.166199 
L 1044.734139 400.166199 
L 1018.05643 400.166199 
L 992.344477 400.166199 
L 967.535973 400.166199 
L 943.568612 400.166199 
L 920.380085 400.166199 
L 897.908088 400.166199 
L 876.090312 400.166199 
L 854.86445 400.166199 
L 834.168197 400.166199 
L 813.939246 400.166199 
L 794.115288 400.166199 
L 774.634019 400.166199 
L 755.43313 400.166199 
L 736.450314 400.166199 
L 717.623266 400.166199 
L 698.889679 400.166199 
L 680.187244 400.166199 
L 661.453657 400.166199 
L 642.626609 400.166199 
L 623.643793 400.166199 
L 604.442904 400.166199 
L 584.961635 400.166199 
L 565.137677 400.166199 
L 544.908726 400.166199 
L 524.212473 400.166199 
L 502.986612 400.166199 
L 481.168836 400.166199 
L 458.696838 400.166199 
L 435.508311 400.166199 
L 411.54095 400.166199 
L 386.732446 400.166199 
L 361.020493 400.166199 
L 334.342784 400.166199 
L 306.637012 400.166199 
L 277.840871 400.166199 
L 247.892053 400.166199 
L 216.728252 400.166199 
L 184.287161 400.166199 
L 150.506473 400.166199 
L 115.323882 400.166199 
L 78.677079 400.166199 
z
" clip-path="url(#p2fbc2e0d3f)" style="fill: #808080; fill-opacity: 0.6; stroke: #808080; stroke-opacity: 0.6; stroke-width: 2"/>
    <path d="M 78.677079 389.677463 
L 78.677079 400.166199 
L 78.677079 400.166199 
L 115.323882 400.020837 
L 150.506473 399.592771 
L 184.287161 398.894031 
L 216.728252 397.936646 
L 247.892053 396.732648 
L 277.840871 395.294065 
L 306.637012 393.632928 
L 334.342784 391.761267 
L 361.020493 389.691112 
L 386.732446 387.434492 
L 411.54095 385.003437 
L 435.508311 382.409979 
L 458.696838 379.666145 
L 481.168836 376.783968 
L 502.986612 373.775475 
L 524.212473 370.652698 
L 544.908726 367.427667 
L 565.137677 364.11241 
L 584.961635 360.718959 
L 604.442904 357.259343 
L 623.643793 353.745593 
L 642.626609 350.189737 
L 661.453657 346.603807 
L 680.187244 342.999831 
L 698.889679 339.389841 
L 717.623266 335.785866 
L 736.450314 332.199935 
L 755.43313 328.64408 
L 774.634019 325.130329 
L 794.115288 321.670713 
L 813.939246 318.277262 
L 834.168197 314.962006 
L 854.86445 311.736974 
L 876.090312 308.614197 
L 897.908088 305.605705 
L 920.380085 302.723527 
L 943.568612 299.979694 
L 967.535973 297.386235 
L 992.344477 294.955181 
L 1018.05643 292.698561 
L 1044.734139 290.628405 
L 1072.439911 288.756744 
L 1101.236052 287.095607 
L 1131.18487 285.657025 
L 1162.348671 284.453026 
L 1194.789762 283.495642 
L 1228.57045 282.796902 
L 1263.753042 282.368836 
L 1300.399844 282.223474 
L 1300.399844 282.223474 
L 1300.399844 271.734738 
L 1300.399844 271.734738 
L 1263.753042 271.8801 
L 1228.57045 272.308166 
L 1194.789762 273.006906 
L 1162.348671 273.96429 
L 1131.18487 275.168289 
L 1101.236052 276.606872 
L 1072.439911 278.268008 
L 1044.734139 280.13967 
L 1018.05643 282.209825 
L 992.344477 284.466445 
L 967.535973 286.897499 
L 943.568612 289.490958 
L 920.380085 292.234791 
L 897.908088 295.116969 
L 876.090312 298.125462 
L 854.86445 301.248238 
L 834.168197 304.47327 
L 813.939246 307.788526 
L 794.115288 311.181978 
L 774.634019 314.641593 
L 755.43313 318.155344 
L 736.450314 321.7112 
L 717.623266 325.29713 
L 698.889679 328.901105 
L 680.187244 332.511096 
L 661.453657 336.115071 
L 642.626609 339.701001 
L 623.643793 343.256857 
L 604.442904 346.770608 
L 584.961635 350.230223 
L 565.137677 353.623675 
L 544.908726 356.938931 
L 524.212473 360.163963 
L 502.986612 363.28674 
L 481.168836 366.295232 
L 458.696838 369.17741 
L 435.508311 371.921243 
L 411.54095 374.514702 
L 386.732446 376.945756 
L 361.020493 379.202376 
L 334.342784 381.272531 
L 306.637012 383.144193 
L 277.840871 384.80533 
L 247.892053 386.243912 
L 216.728252 387.447911 
L 184.287161 388.405295 
L 150.506473 389.104035 
L 115.323882 389.532101 
L 78.677079 389.677463 
z
" clip-path="url(#p2fbc2e0d3f)" style="fill: #808080; fill-opacity: 0.6; stroke: #808080; stroke-opacity: 0.6; stroke-width: 2"/>
    <path d="M 78.677079 316.614902 
L 78.677079 353.022918 
L 78.677079 353.022918 
L 115.323882 353.081021 
L 150.506473 353.252125 
L 184.287161 353.53142 
L 216.728252 353.9141 
L 247.892053 354.395354 
L 277.840871 354.970374 
L 306.637012 355.634353 
L 334.342784 356.382481 
L 361.020493 357.20995 
L 386.732446 358.111951 
L 411.54095 359.083676 
L 435.508311 360.120316 
L 458.696838 361.217063 
L 481.168836 362.369108 
L 502.986612 363.571642 
L 524.212473 364.819858 
L 544.908726 366.108946 
L 565.137677 367.434098 
L 584.961635 368.790506 
L 604.442904 370.17336 
L 623.643793 371.577853 
L 642.626609 372.999176 
L 661.453657 374.432521 
L 680.187244 375.873078 
L 698.889679 377.316039 
L 717.623266 378.756596 
L 736.450314 380.18994 
L 755.43313 381.611263 
L 774.634019 383.015756 
L 794.115288 384.398611 
L 813.939246 385.755018 
L 834.168197 387.080171 
L 854.86445 388.369259 
L 876.090312 389.617474 
L 897.908088 390.820009 
L 920.380085 391.972054 
L 943.568612 393.068801 
L 967.535973 394.105441 
L 992.344477 395.077166 
L 1018.05643 395.979167 
L 1044.734139 396.806635 
L 1072.439911 397.554763 
L 1101.236052 398.218742 
L 1131.18487 398.793763 
L 1162.348671 399.275017 
L 1194.789762 399.657696 
L 1228.57045 399.936992 
L 1263.753042 400.108096 
L 1300.399844 400.166199 
L 1300.399844 400.166199 
L 1300.399844 363.758183 
L 1300.399844 363.758183 
L 1263.753042 363.70008 
L 1228.57045 363.528977 
L 1194.789762 363.249681 
L 1162.348671 362.867002 
L 1131.18487 362.385747 
L 1101.236052 361.810727 
L 1072.439911 361.146748 
L 1044.734139 360.39862 
L 1018.05643 359.571151 
L 992.344477 358.66915 
L 967.535973 357.697425 
L 943.568612 356.660785 
L 920.380085 355.564039 
L 897.908088 354.411994 
L 876.090312 353.209459 
L 854.86445 351.961243 
L 834.168197 350.672155 
L 813.939246 349.347003 
L 794.115288 347.990595 
L 774.634019 346.607741 
L 755.43313 345.203248 
L 736.450314 343.781925 
L 717.623266 342.348581 
L 698.889679 340.908024 
L 680.187244 339.465062 
L 661.453657 338.024505 
L 642.626609 336.591161 
L 623.643793 335.169838 
L 604.442904 333.765345 
L 584.961635 332.38249 
L 565.137677 331.026083 
L 544.908726 329.700931 
L 524.212473 328.411842 
L 502.986612 327.163627 
L 481.168836 325.961092 
L 458.696838 324.809047 
L 435.508311 323.7123 
L 411.54095 322.67566 
L 386.732446 321.703936 
L 361.020493 320.801934 
L 334.342784 319.974466 
L 306.637012 319.226338 
L 277.840871 318.562359 
L 247.892053 317.987338 
L 216.728252 317.506084 
L 184.287161 317.123405 
L 150.506473 316.844109 
L 115.323882 316.673005 
L 78.677079 316.614902 
z
" clip-path="url(#p2fbc2e0d3f)" style="fill: #808080; fill-opacity: 0.6; stroke: #808080; stroke-opacity: 0.6; stroke-width: 2"/>
    <path d="M 78.677079 313.992718 
L 78.677079 316.614902 
L 78.677079 316.614902 
L 115.323882 316.559588 
L 150.506473 316.396699 
L 184.287161 316.13081 
L 216.728252 315.766502 
L 247.892053 315.30835 
L 277.840871 314.760933 
L 306.637012 314.128829 
L 334.342784 313.416615 
L 361.020493 312.628869 
L 386.732446 311.770169 
L 411.54095 310.845091 
L 435.508311 309.858215 
L 458.696838 308.814118 
L 481.168836 307.717377 
L 502.986612 306.57257 
L 524.212473 305.384275 
L 544.908726 304.15707 
L 565.137677 302.895532 
L 584.961635 301.604238 
L 604.442904 300.287768 
L 623.643793 298.950698 
L 642.626609 297.597605 
L 661.453657 296.233069 
L 680.187244 294.861666 
L 698.889679 293.487974 
L 717.623266 292.116571 
L 736.450314 290.752035 
L 755.43313 289.398943 
L 774.634019 288.061872 
L 794.115288 286.745402 
L 813.939246 285.454109 
L 834.168197 284.19257 
L 854.86445 282.965365 
L 876.090312 281.77707 
L 897.908088 280.632263 
L 920.380085 279.535522 
L 943.568612 278.491425 
L 967.535973 277.504549 
L 992.344477 276.579472 
L 1018.05643 275.720771 
L 1044.734139 274.933025 
L 1072.439911 274.220811 
L 1101.236052 273.588707 
L 1131.18487 273.04129 
L 1162.348671 272.583139 
L 1194.789762 272.21883 
L 1228.57045 271.952942 
L 1263.753042 271.790052 
L 1300.399844 271.734738 
L 1300.399844 271.734738 
L 1300.399844 269.112554 
L 1300.399844 269.112554 
L 1263.753042 269.167868 
L 1228.57045 269.330758 
L 1194.789762 269.596646 
L 1162.348671 269.960955 
L 1131.18487 270.419106 
L 1101.236052 270.966523 
L 1072.439911 271.598627 
L 1044.734139 272.310841 
L 1018.05643 273.098587 
L 992.344477 273.957288 
L 967.535973 274.882365 
L 943.568612 275.869241 
L 920.380085 276.913338 
L 897.908088 278.010079 
L 876.090312 279.154886 
L 854.86445 280.343181 
L 834.168197 281.570386 
L 813.939246 282.831925 
L 794.115288 284.123218 
L 774.634019 285.439688 
L 755.43313 286.776759 
L 736.450314 288.129851 
L 717.623266 289.494387 
L 698.889679 290.86579 
L 680.187244 292.239482 
L 661.453657 293.610885 
L 642.626609 294.975422 
L 623.643793 296.328514 
L 604.442904 297.665584 
L 584.961635 298.982055 
L 565.137677 300.273348 
L 544.908726 301.534886 
L 524.212473 302.762091 
L 502.986612 303.950386 
L 481.168836 305.095193 
L 458.696838 306.191934 
L 435.508311 307.236031 
L 411.54095 308.222907 
L 386.732446 309.147985 
L 361.020493 310.006685 
L 334.342784 310.794431 
L 306.637012 311.506645 
L 277.840871 312.138749 
L 247.892053 312.686166 
L 216.728252 313.144318 
L 184.287161 313.508626 
L 150.506473 313.774515 
L 115.323882 313.937404 
L 78.677079 313.992718 
z
" clip-path="url(#p2fbc2e0d3f)" style="fill: #808080; fill-opacity: 0.6; stroke: #808080; stroke-opacity: 0.6; stroke-width: 2"/>
    <path d="M 78.677079 266.446024 
L 78.677079 277.338173 
L 78.677079 277.338173 
L 115.323882 277.444684 
L 150.506473 277.75834 
L 184.287161 278.270327 
L 216.728252 278.97183 
L 247.892053 279.854034 
L 277.840871 280.908125 
L 306.637012 282.125287 
L 334.342784 283.496707 
L 361.020493 285.013569 
L 386.732446 286.667059 
L 411.54095 288.448362 
L 435.508311 290.348664 
L 458.696838 292.359149 
L 481.168836 294.471003 
L 502.986612 296.675411 
L 524.212473 298.96356 
L 544.908726 301.326633 
L 565.137677 303.755816 
L 584.961635 306.242294 
L 604.442904 308.777254 
L 623.643793 311.35188 
L 642.626609 313.957357 
L 661.453657 316.584871 
L 680.187244 319.225607 
L 698.889679 321.87075 
L 717.623266 324.511486 
L 736.450314 327.139 
L 755.43313 329.744477 
L 774.634019 332.319102 
L 794.115288 334.854062 
L 813.939246 337.340541 
L 834.168197 339.769724 
L 854.86445 342.132797 
L 876.090312 344.420945 
L 897.908088 346.625353 
L 920.380085 348.737208 
L 943.568612 350.747693 
L 967.535973 352.647994 
L 992.344477 354.429297 
L 1018.05643 356.082787 
L 1044.734139 357.599649 
L 1072.439911 358.971069 
L 1101.236052 360.188232 
L 1131.18487 361.242322 
L 1162.348671 362.124527 
L 1194.789762 362.826029 
L 1228.57045 363.338016 
L 1263.753042 363.651673 
L 1300.399844 363.758183 
L 1300.399844 363.758183 
L 1300.399844 352.866035 
L 1300.399844 352.866035 
L 1263.753042 352.759524 
L 1228.57045 352.445868 
L 1194.789762 351.933881 
L 1162.348671 351.232378 
L 1131.18487 350.350174 
L 1101.236052 349.296083 
L 1072.439911 348.078921 
L 1044.734139 346.707501 
L 1018.05643 345.190639 
L 992.344477 343.537149 
L 967.535973 341.755846 
L 943.568612 339.855544 
L 920.380085 337.845059 
L 897.908088 335.733205 
L 876.090312 333.528796 
L 854.86445 331.240648 
L 834.168197 328.877575 
L 813.939246 326.448392 
L 794.115288 323.961913 
L 774.634019 321.426954 
L 755.43313 318.852328 
L 736.450314 316.246851 
L 717.623266 313.619337 
L 698.889679 310.978601 
L 680.187244 308.333458 
L 661.453657 305.692722 
L 642.626609 303.065208 
L 623.643793 300.459731 
L 604.442904 297.885105 
L 584.961635 295.350146 
L 565.137677 292.863667 
L 544.908726 290.434484 
L 524.212473 288.071411 
L 502.986612 285.783263 
L 481.168836 283.578854 
L 458.696838 281.467 
L 435.508311 279.456515 
L 411.54095 277.556214 
L 386.732446 275.774911 
L 361.020493 274.121421 
L 334.342784 272.604558 
L 306.637012 271.233139 
L 277.840871 270.015976 
L 247.892053 268.961885 
L 216.728252 268.079681 
L 184.287161 267.378178 
L 150.506473 266.866191 
L 115.323882 266.552535 
L 78.677079 266.446024 
z
" clip-path="url(#p2fbc2e0d3f)" style="fill: #808080; fill-opacity: 0.6; stroke: #808080; stroke-opacity: 0.6; stroke-width: 2"/>
    <path d="M 78.677079 246.275379 
L 78.677079 266.446024 
L 78.677079 266.446024 
L 115.323882 266.449311 
L 150.506473 266.458989 
L 184.287161 266.474786 
L 216.728252 266.496432 
L 247.892053 266.523652 
L 277.840871 266.556177 
L 306.637012 266.593733 
L 334.342784 266.636049 
L 361.020493 266.682852 
L 386.732446 266.733871 
L 411.54095 266.788834 
L 435.508311 266.847469 
L 458.696838 266.909504 
L 481.168836 266.974666 
L 502.986612 267.042684 
L 524.212473 267.113286 
L 544.908726 267.186199 
L 565.137677 267.261153 
L 584.961635 267.337874 
L 604.442904 267.416092 
L 623.643793 267.495533 
L 642.626609 267.575926 
L 661.453657 267.656999 
L 680.187244 267.738481 
L 698.889679 267.820098 
L 717.623266 267.901579 
L 736.450314 267.982652 
L 755.43313 268.063045 
L 774.634019 268.142486 
L 794.115288 268.220704 
L 813.939246 268.297425 
L 834.168197 268.372379 
L 854.86445 268.445293 
L 876.090312 268.515894 
L 897.908088 268.583913 
L 920.380085 268.649075 
L 943.568612 268.711109 
L 967.535973 268.769744 
L 992.344477 268.824707 
L 1018.05643 268.875726 
L 1044.734139 268.92253 
L 1072.439911 268.964845 
L 1101.236052 269.002401 
L 1131.18487 269.034926 
L 1162.348671 269.062147 
L 1194.789762 269.083792 
L 1228.57045 269.09959 
L 1263.753042 269.109268 
L 1300.399844 269.112554 
L 1300.399844 269.112554 
L 1300.399844 248.941908 
L 1300.399844 248.941908 
L 1263.753042 248.938622 
L 1228.57045 248.928944 
L 1194.789762 248.913146 
L 1162.348671 248.891501 
L 1131.18487 248.86428 
L 1101.236052 248.831756 
L 1072.439911 248.7942 
L 1044.734139 248.751884 
L 1018.05643 248.70508 
L 992.344477 248.654061 
L 967.535973 248.599098 
L 943.568612 248.540464 
L 920.380085 248.478429 
L 897.908088 248.413267 
L 876.090312 248.345249 
L 854.86445 248.274647 
L 834.168197 248.201733 
L 813.939246 248.12678 
L 794.115288 248.050058 
L 774.634019 247.971841 
L 755.43313 247.8924 
L 736.450314 247.812006 
L 717.623266 247.730933 
L 698.889679 247.649452 
L 680.187244 247.567835 
L 661.453657 247.486354 
L 642.626609 247.405281 
L 623.643793 247.324887 
L 604.442904 247.245446 
L 584.961635 247.167229 
L 565.137677 247.090507 
L 544.908726 247.015554 
L 524.212473 246.94264 
L 502.986612 246.872038 
L 481.168836 246.80402 
L 458.696838 246.738858 
L 435.508311 246.676823 
L 411.54095 246.618189 
L 386.732446 246.563226 
L 361.020493 246.512207 
L 334.342784 246.465403 
L 306.637012 246.423087 
L 277.840871 246.385531 
L 247.892053 246.353007 
L 216.728252 246.325786 
L 184.287161 246.304141 
L 150.506473 246.288343 
L 115.323882 246.278665 
L 78.677079 246.275379 
z
" clip-path="url(#p2fbc2e0d3f)" style="fill: #808080; fill-opacity: 0.6; stroke: #808080; stroke-opacity: 0.6; stroke-width: 2"/>
    <path d="M 78.677079 171.050076 
L 78.677079 171.251783 
L 78.677079 171.251783 
L 115.323882 171.473506 
L 150.506473 172.126441 
L 184.287161 173.192239 
L 216.728252 174.652552 
L 247.892053 176.489028 
L 277.840871 178.683319 
L 306.637012 181.217075 
L 334.342784 184.071947 
L 361.020493 187.229585 
L 386.732446 190.67164 
L 411.54095 194.379763 
L 435.508311 198.335603 
L 458.696838 202.520811 
L 481.168836 206.917039 
L 502.986612 211.505936 
L 524.212473 216.269153 
L 544.908726 221.18834 
L 565.137677 226.245149 
L 584.961635 231.421229 
L 604.442904 236.698231 
L 623.643793 242.057806 
L 642.626609 247.481604 
L 661.453657 252.951275 
L 680.187244 258.448471 
L 698.889679 263.954842 
L 717.623266 269.452038 
L 736.450314 274.921709 
L 755.43313 280.345507 
L 774.634019 285.705082 
L 794.115288 290.982084 
L 813.939246 296.158164 
L 834.168197 301.214973 
L 854.86445 306.13416 
L 876.090312 310.897377 
L 897.908088 315.486274 
L 920.380085 319.882502 
L 943.568612 324.06771 
L 967.535973 328.02355 
L 992.344477 331.731673 
L 1018.05643 335.173728 
L 1044.734139 338.331366 
L 1072.439911 341.186238 
L 1101.236052 343.719994 
L 1131.18487 345.914285 
L 1162.348671 347.750761 
L 1194.789762 349.211073 
L 1228.57045 350.276872 
L 1263.753042 350.929807 
L 1300.399844 351.15153 
L 1300.399844 351.15153 
L 1300.399844 350.949824 
L 1300.399844 350.949824 
L 1263.753042 350.728101 
L 1228.57045 350.075165 
L 1194.789762 349.009367 
L 1162.348671 347.549055 
L 1131.18487 345.712579 
L 1101.236052 343.518288 
L 1072.439911 340.984531 
L 1044.734139 338.129659 
L 1018.05643 334.972021 
L 992.344477 331.529966 
L 967.535973 327.821844 
L 943.568612 323.866004 
L 920.380085 319.680795 
L 897.908088 315.284568 
L 876.090312 310.695671 
L 854.86445 305.932454 
L 834.168197 301.013266 
L 813.939246 295.956458 
L 794.115288 290.780378 
L 774.634019 285.503375 
L 755.43313 280.143801 
L 736.450314 274.720003 
L 717.623266 269.250331 
L 698.889679 263.753135 
L 680.187244 258.246765 
L 661.453657 252.749569 
L 642.626609 247.279897 
L 623.643793 241.856099 
L 604.442904 236.496525 
L 584.961635 231.219522 
L 565.137677 226.043442 
L 544.908726 220.986634 
L 524.212473 216.067446 
L 502.986612 211.304229 
L 481.168836 206.715332 
L 458.696838 202.319105 
L 435.508311 198.133896 
L 411.54095 194.178056 
L 386.732446 190.469934 
L 361.020493 187.027879 
L 334.342784 183.87024 
L 306.637012 181.015369 
L 277.840871 178.481612 
L 247.892053 176.287321 
L 216.728252 174.450845 
L 184.287161 172.990533 
L 150.506473 171.924735 
L 115.323882 171.271799 
L 78.677079 171.050076 
z
" clip-path="url(#p2fbc2e0d3f)" style="fill: #808080; fill-opacity: 0.6; stroke: #808080; stroke-opacity: 0.6; stroke-width: 2"/>
    <path d="M 78.677079 170.949223 
L 78.677079 171.050076 
L 78.677079 171.050076 
L 115.323882 171.146077 
L 150.506473 171.42878 
L 184.287161 171.890243 
L 216.728252 172.522519 
L 247.892053 173.317665 
L 277.840871 174.267735 
L 306.637012 175.364784 
L 334.342784 176.600868 
L 361.020493 177.968042 
L 386.732446 179.458361 
L 411.54095 181.06388 
L 435.508311 182.776654 
L 458.696838 184.588739 
L 481.168836 186.492189 
L 502.986612 188.47906 
L 524.212473 190.541407 
L 544.908726 192.671285 
L 565.137677 194.860749 
L 584.961635 197.101855 
L 604.442904 199.386657 
L 623.643793 201.707211 
L 642.626609 204.055572 
L 661.453657 206.423796 
L 680.187244 208.803936 
L 698.889679 211.188049 
L 717.623266 213.568189 
L 736.450314 215.936412 
L 755.43313 218.284773 
L 774.634019 220.605327 
L 794.115288 222.89013 
L 813.939246 225.131236 
L 834.168197 227.3207 
L 854.86445 229.450578 
L 876.090312 231.512925 
L 897.908088 233.499796 
L 920.380085 235.403246 
L 943.568612 237.215331 
L 967.535973 238.928105 
L 992.344477 240.533624 
L 1018.05643 242.023943 
L 1044.734139 243.391116 
L 1072.439911 244.6272 
L 1101.236052 245.72425 
L 1131.18487 246.67432 
L 1162.348671 247.469465 
L 1194.789762 248.101742 
L 1228.57045 248.563205 
L 1263.753042 248.845908 
L 1300.399844 248.941908 
L 1300.399844 248.941908 
L 1300.399844 248.841055 
L 1300.399844 248.841055 
L 1263.753042 248.745055 
L 1228.57045 248.462351 
L 1194.789762 248.000889 
L 1162.348671 247.368612 
L 1131.18487 246.573467 
L 1101.236052 245.623397 
L 1072.439911 244.526347 
L 1044.734139 243.290263 
L 1018.05643 241.923089 
L 992.344477 240.432771 
L 967.535973 238.827252 
L 943.568612 237.114478 
L 920.380085 235.302393 
L 897.908088 233.398943 
L 876.090312 231.412072 
L 854.86445 229.349725 
L 834.168197 227.219847 
L 813.939246 225.030382 
L 794.115288 222.789277 
L 774.634019 220.504474 
L 755.43313 218.18392 
L 736.450314 215.835559 
L 717.623266 213.467336 
L 698.889679 211.087196 
L 680.187244 208.703083 
L 661.453657 206.322942 
L 642.626609 203.954719 
L 623.643793 201.606358 
L 604.442904 199.285804 
L 584.961635 197.001002 
L 565.137677 194.759896 
L 544.908726 192.570432 
L 524.212473 190.440554 
L 502.986612 188.378207 
L 481.168836 186.391336 
L 458.696838 184.487885 
L 435.508311 182.675801 
L 411.54095 180.963027 
L 386.732446 179.357508 
L 361.020493 177.867189 
L 334.342784 176.500015 
L 306.637012 175.263931 
L 277.840871 174.166882 
L 247.892053 173.216812 
L 216.728252 172.421666 
L 184.287161 171.78939 
L 150.506473 171.327927 
L 115.323882 171.045223 
L 78.677079 170.949223 
z
" clip-path="url(#p2fbc2e0d3f)" style="fill: #808080; fill-opacity: 0.6; stroke: #808080; stroke-opacity: 0.6; stroke-width: 2"/>
    <path d="M 78.677079 207.906328 
L 78.677079 209.620833 
L 78.677079 209.620833 
L 115.323882 209.79738 
L 150.506473 210.31728 
L 184.287161 211.165922 
L 216.728252 212.328696 
L 247.892053 213.79099 
L 277.840871 215.538195 
L 306.637012 217.555699 
L 334.342784 219.828891 
L 361.020493 222.343161 
L 386.732446 225.083898 
L 411.54095 228.036491 
L 435.508311 231.186329 
L 458.696838 234.518802 
L 481.168836 238.019299 
L 502.986612 241.673209 
L 524.212473 245.465921 
L 544.908726 249.382825 
L 565.137677 253.409309 
L 584.961635 257.530764 
L 604.442904 261.732578 
L 623.643793 266.00014 
L 642.626609 270.31884 
L 661.453657 274.674067 
L 680.187244 279.05121 
L 698.889679 283.435658 
L 717.623266 287.812801 
L 736.450314 292.168028 
L 755.43313 296.486728 
L 774.634019 300.75429 
L 794.115288 304.956104 
L 813.939246 309.077559 
L 834.168197 313.104043 
L 854.86445 317.020947 
L 876.090312 320.813659 
L 897.908088 324.467569 
L 920.380085 327.968066 
L 943.568612 331.300539 
L 967.535973 334.450377 
L 992.344477 337.40297 
L 1018.05643 340.143707 
L 1044.734139 342.657977 
L 1072.439911 344.931169 
L 1101.236052 346.948673 
L 1131.18487 348.695878 
L 1162.348671 350.158172 
L 1194.789762 351.320946 
L 1228.57045 352.169588 
L 1263.753042 352.689488 
L 1300.399844 352.866035 
L 1300.399844 352.866035 
L 1300.399844 351.15153 
L 1300.399844 351.15153 
L 1263.753042 350.974983 
L 1228.57045 350.455083 
L 1194.789762 349.606441 
L 1162.348671 348.443667 
L 1131.18487 346.981373 
L 1101.236052 345.234168 
L 1072.439911 343.216665 
L 1044.734139 340.943472 
L 1018.05643 338.429202 
L 992.344477 335.688466 
L 967.535973 332.735873 
L 943.568612 329.586034 
L 920.380085 326.253561 
L 897.908088 322.753064 
L 876.090312 319.099154 
L 854.86445 315.306442 
L 834.168197 311.389538 
L 813.939246 307.363054 
L 794.115288 303.241599 
L 774.634019 299.039785 
L 755.43313 294.772223 
L 736.450314 290.453523 
L 717.623266 286.098296 
L 698.889679 281.721153 
L 680.187244 277.336705 
L 661.453657 272.959562 
L 642.626609 268.604335 
L 623.643793 264.285635 
L 604.442904 260.018073 
L 584.961635 255.816259 
L 565.137677 251.694804 
L 544.908726 247.66832 
L 524.212473 243.751416 
L 502.986612 239.958704 
L 481.168836 236.304794 
L 458.696838 232.804297 
L 435.508311 229.471824 
L 411.54095 226.321986 
L 386.732446 223.369393 
L 361.020493 220.628656 
L 334.342784 218.114386 
L 306.637012 215.841194 
L 277.840871 213.82369 
L 247.892053 212.076485 
L 216.728252 210.614191 
L 184.287161 209.451417 
L 150.506473 208.602775 
L 115.323882 208.082875 
L 78.677079 207.906328 
z
" clip-path="url(#p2fbc2e0d3f)" style="fill: #808080; fill-opacity: 0.6; stroke: #808080; stroke-opacity: 0.6; stroke-width: 2"/>
    <path d="M 78.677079 207.906328 
L 78.677079 207.906328 
L 78.677079 207.906328 
L 115.323882 207.956904 
L 150.506473 208.10584 
L 184.287161 208.348951 
L 216.728252 208.682052 
L 247.892053 209.100957 
L 277.840871 209.60148 
L 306.637012 210.179436 
L 334.342784 210.83064 
L 361.020493 211.550905 
L 386.732446 212.336046 
L 411.54095 213.181878 
L 435.508311 214.084215 
L 458.696838 215.038872 
L 481.168836 216.041662 
L 502.986612 217.088401 
L 524.212473 218.174902 
L 544.908726 219.296981 
L 565.137677 220.450452 
L 584.961635 221.631129 
L 604.442904 222.834826 
L 623.643793 224.057358 
L 642.626609 225.29454 
L 661.453657 226.542186 
L 680.187244 227.79611 
L 698.889679 229.052127 
L 717.623266 230.306051 
L 736.450314 231.553697 
L 755.43313 232.790878 
L 774.634019 234.013411 
L 794.115288 235.217108 
L 813.939246 236.397785 
L 834.168197 237.551255 
L 854.86445 238.673334 
L 876.090312 239.759836 
L 897.908088 240.806575 
L 920.380085 241.809365 
L 943.568612 242.764022 
L 967.535973 243.666359 
L 992.344477 244.512191 
L 1018.05643 245.297332 
L 1044.734139 246.017597 
L 1072.439911 246.6688 
L 1101.236052 247.246757 
L 1131.18487 247.74728 
L 1162.348671 248.166185 
L 1194.789762 248.499285 
L 1228.57045 248.742397 
L 1263.753042 248.891333 
L 1300.399844 248.941908 
L 1300.399844 248.941908 
L 1300.399844 248.941908 
L 1300.399844 248.941908 
L 1263.753042 248.891333 
L 1228.57045 248.742397 
L 1194.789762 248.499285 
L 1162.348671 248.166185 
L 1131.18487 247.74728 
L 1101.236052 247.246757 
L 1072.439911 246.6688 
L 1044.734139 246.017597 
L 1018.05643 245.297332 
L 992.344477 244.512191 
L 967.535973 243.666359 
L 943.568612 242.764022 
L 920.380085 241.809365 
L 897.908088 240.806575 
L 876.090312 239.759836 
L 854.86445 238.673334 
L 834.168197 237.551255 
L 813.939246 236.397785 
L 794.115288 235.217108 
L 774.634019 234.013411 
L 755.43313 232.790878 
L 736.450314 231.553697 
L 717.623266 230.306051 
L 698.889679 229.052127 
L 680.187244 227.79611 
L 661.453657 226.542186 
L 642.626609 225.29454 
L 623.643793 224.057358 
L 604.442904 222.834826 
L 584.961635 221.631129 
L 565.137677 220.450452 
L 544.908726 219.296981 
L 524.212473 218.174902 
L 502.986612 217.088401 
L 481.168836 216.041662 
L 458.696838 215.038872 
L 435.508311 214.084215 
L 411.54095 213.181878 
L 386.732446 212.336046 
L 361.020493 211.550905 
L 334.342784 210.83064 
L 306.637012 210.179436 
L 277.840871 209.60148 
L 247.892053 209.100957 
L 216.728252 208.682052 
L 184.287161 208.348951 
L 150.506473 208.10584 
L 115.323882 207.956904 
L 78.677079 207.906328 
z
" clip-path="url(#p2fbc2e0d3f)" style="fill: #808080; fill-opacity: 0.6; stroke: #808080; stroke-opacity: 0.6; stroke-width: 2"/>
    <path d="M 78.677079 132.681026 
L 78.677079 134.294678 
L 78.677079 134.294678 
L 115.323882 134.561701 
L 150.506473 135.348038 
L 184.287161 136.63159 
L 216.728252 138.390259 
L 247.892053 140.601947 
L 277.840871 143.244554 
L 306.637012 146.295983 
L 334.342784 149.734135 
L 361.020493 153.536912 
L 386.732446 157.682215 
L 411.54095 162.147945 
L 435.508311 166.912005 
L 458.696838 171.952296 
L 481.168836 177.246718 
L 502.986612 182.773175 
L 524.212473 188.509567 
L 544.908726 194.433796 
L 565.137677 200.523763 
L 584.961635 206.75737 
L 604.442904 213.112519 
L 623.643793 219.567111 
L 642.626609 226.099048 
L 661.453657 232.68623 
L 680.187244 239.306561 
L 698.889679 245.93794 
L 717.623266 252.558271 
L 736.450314 259.145454 
L 755.43313 265.67739 
L 774.634019 272.131982 
L 794.115288 278.487131 
L 813.939246 284.720738 
L 834.168197 290.810706 
L 854.86445 296.734934 
L 876.090312 302.471326 
L 897.908088 307.997783 
L 920.380085 313.292206 
L 943.568612 318.332496 
L 967.535973 323.096556 
L 992.344477 327.562286 
L 1018.05643 331.707589 
L 1044.734139 335.510366 
L 1072.439911 338.948518 
L 1101.236052 341.999947 
L 1131.18487 344.642555 
L 1162.348671 346.854242 
L 1194.789762 348.612911 
L 1228.57045 349.896464 
L 1263.753042 350.6828 
L 1300.399844 350.949824 
L 1300.399844 350.949824 
L 1300.399844 349.336172 
L 1300.399844 349.336172 
L 1263.753042 349.069149 
L 1228.57045 348.282812 
L 1194.789762 346.99926 
L 1162.348671 345.240591 
L 1131.18487 343.028903 
L 1101.236052 340.386295 
L 1072.439911 337.334866 
L 1044.734139 333.896714 
L 1018.05643 330.093938 
L 992.344477 325.948635 
L 967.535973 321.482904 
L 943.568612 316.718845 
L 920.380085 311.678554 
L 897.908088 306.384131 
L 876.090312 300.857675 
L 854.86445 295.121283 
L 834.168197 289.197054 
L 813.939246 283.107087 
L 794.115288 276.873479 
L 774.634019 270.51833 
L 755.43313 264.063738 
L 736.450314 257.531802 
L 717.623266 250.944619 
L 698.889679 244.324289 
L 680.187244 237.692909 
L 661.453657 231.072579 
L 642.626609 224.485396 
L 623.643793 217.95346 
L 604.442904 211.498868 
L 584.961635 205.143719 
L 565.137677 198.910111 
L 544.908726 192.820144 
L 524.212473 186.895915 
L 502.986612 181.159523 
L 481.168836 175.633067 
L 458.696838 170.338644 
L 435.508311 165.298353 
L 411.54095 160.534294 
L 386.732446 156.068563 
L 361.020493 151.92326 
L 334.342784 148.120484 
L 306.637012 144.682332 
L 277.840871 141.630902 
L 247.892053 138.988295 
L 216.728252 136.776607 
L 184.287161 135.017938 
L 150.506473 133.734386 
L 115.323882 132.948049 
L 78.677079 132.681026 
z
" clip-path="url(#p2fbc2e0d3f)" style="fill: #808080; fill-opacity: 0.6; stroke: #808080; stroke-opacity: 0.6; stroke-width: 2"/>
    <path d="M 78.677079 132.277613 
L 78.677079 132.681026 
L 78.677079 132.681026 
L 115.323882 132.824191 
L 150.506473 133.245787 
L 184.287161 133.933966 
L 216.728252 134.876879 
L 247.892053 136.062679 
L 277.840871 137.479518 
L 306.637012 139.115547 
L 334.342784 140.958918 
L 361.020493 142.997783 
L 386.732446 145.220294 
L 411.54095 147.614603 
L 435.508311 150.168862 
L 458.696838 152.871223 
L 481.168836 155.709837 
L 502.986612 158.672856 
L 524.212473 161.748432 
L 544.908726 164.924718 
L 565.137677 168.189864 
L 584.961635 171.532023 
L 604.442904 174.939347 
L 623.643793 178.399988 
L 642.626609 181.902097 
L 661.453657 185.433826 
L 680.187244 188.983328 
L 698.889679 192.538753 
L 717.623266 196.088255 
L 736.450314 199.619984 
L 755.43313 203.122093 
L 774.634019 206.582734 
L 794.115288 209.990058 
L 813.939246 213.332217 
L 834.168197 216.597364 
L 854.86445 219.773649 
L 876.090312 222.849226 
L 897.908088 225.812245 
L 920.380085 228.650859 
L 943.568612 231.353219 
L 967.535973 233.907478 
L 992.344477 236.301787 
L 1018.05643 238.524298 
L 1044.734139 240.563163 
L 1072.439911 242.406535 
L 1101.236052 244.042564 
L 1131.18487 245.459402 
L 1162.348671 246.645202 
L 1194.789762 247.588116 
L 1228.57045 248.276294 
L 1263.753042 248.69789 
L 1300.399844 248.841055 
L 1300.399844 248.841055 
L 1300.399844 248.437642 
L 1300.399844 248.437642 
L 1263.753042 248.294477 
L 1228.57045 247.872881 
L 1194.789762 247.184703 
L 1162.348671 246.241789 
L 1131.18487 245.055989 
L 1101.236052 243.639151 
L 1072.439911 242.003122 
L 1044.734139 240.159751 
L 1018.05643 238.120885 
L 992.344477 235.898374 
L 967.535973 233.504065 
L 943.568612 230.949806 
L 920.380085 228.247446 
L 897.908088 225.408832 
L 876.090312 222.445813 
L 854.86445 219.370236 
L 834.168197 216.193951 
L 813.939246 212.928804 
L 794.115288 209.586645 
L 774.634019 206.179321 
L 755.43313 202.71868 
L 736.450314 199.216571 
L 717.623266 195.684842 
L 698.889679 192.13534 
L 680.187244 188.579915 
L 661.453657 185.030413 
L 642.626609 181.498684 
L 623.643793 177.996575 
L 604.442904 174.535934 
L 584.961635 171.12861 
L 565.137677 167.786451 
L 544.908726 164.521305 
L 524.212473 161.345019 
L 502.986612 158.269443 
L 481.168836 155.306424 
L 458.696838 152.46781 
L 435.508311 149.765449 
L 411.54095 147.211191 
L 386.732446 144.816881 
L 361.020493 142.59437 
L 334.342784 140.555505 
L 306.637012 138.712134 
L 277.840871 137.076105 
L 247.892053 135.659266 
L 216.728252 134.473466 
L 184.287161 133.530553 
L 150.506473 132.842374 
L 115.323882 132.420778 
L 78.677079 132.277613 
z
" clip-path="url(#p2fbc2e0d3f)" style="fill: #808080; fill-opacity: 0.6; stroke: #808080; stroke-opacity: 0.6; stroke-width: 2"/>
    <path d="M 78.677079 94.816242 
L 78.677079 95.623068 
L 78.677079 95.623068 
L 115.323882 95.935764 
L 150.506473 96.8566 
L 184.287161 98.359699 
L 216.728252 100.419181 
L 247.892053 103.009169 
L 277.840871 106.103783 
L 306.637012 109.677146 
L 334.342784 113.70338 
L 361.020493 118.156606 
L 386.732446 123.010945 
L 411.54095 128.24052 
L 435.508311 133.819453 
L 458.696838 139.721864 
L 481.168836 145.921876 
L 502.986612 152.393609 
L 524.212473 159.111187 
L 544.908726 166.048731 
L 565.137677 173.180362 
L 584.961635 180.480202 
L 604.442904 187.922372 
L 623.643793 195.480995 
L 642.626609 203.130192 
L 661.453657 210.844085 
L 680.187244 218.596795 
L 698.889679 226.362445 
L 717.623266 234.115155 
L 736.450314 241.829048 
L 755.43313 249.478245 
L 774.634019 257.036868 
L 794.115288 264.479038 
L 813.939246 271.778878 
L 834.168197 278.910509 
L 854.86445 285.848052 
L 876.090312 292.56563 
L 897.908088 299.037364 
L 920.380085 305.237376 
L 943.568612 311.139787 
L 967.535973 316.718719 
L 992.344477 321.948294 
L 1018.05643 326.802634 
L 1044.734139 331.25586 
L 1072.439911 335.282093 
L 1101.236052 338.855456 
L 1131.18487 341.950071 
L 1162.348671 344.540058 
L 1194.789762 346.599541 
L 1228.57045 348.102639 
L 1263.753042 349.023476 
L 1300.399844 349.336172 
L 1300.399844 349.336172 
L 1300.399844 348.529346 
L 1300.399844 348.529346 
L 1263.753042 348.21665 
L 1228.57045 347.295813 
L 1194.789762 345.792715 
L 1162.348671 343.733233 
L 1131.18487 341.143245 
L 1101.236052 338.048631 
L 1072.439911 334.475267 
L 1044.734139 330.449034 
L 1018.05643 325.995808 
L 992.344477 321.141468 
L 967.535973 315.911893 
L 943.568612 310.332961 
L 920.380085 304.43055 
L 897.908088 298.230538 
L 876.090312 291.758804 
L 854.86445 285.041226 
L 834.168197 278.103683 
L 813.939246 270.972052 
L 794.115288 263.672212 
L 774.634019 256.230042 
L 755.43313 248.671419 
L 736.450314 241.022222 
L 717.623266 233.308329 
L 698.889679 225.555619 
L 680.187244 217.789969 
L 661.453657 210.037259 
L 642.626609 202.323366 
L 623.643793 194.674169 
L 604.442904 187.115546 
L 584.961635 179.673376 
L 565.137677 172.373536 
L 544.908726 165.241905 
L 524.212473 158.304362 
L 502.986612 151.586784 
L 481.168836 145.11505 
L 458.696838 138.915038 
L 435.508311 133.012627 
L 411.54095 127.433695 
L 386.732446 122.20412 
L 361.020493 117.34978 
L 334.342784 112.896554 
L 306.637012 108.870321 
L 277.840871 105.296957 
L 247.892053 102.202343 
L 216.728252 99.612355 
L 184.287161 97.552873 
L 150.506473 96.049775 
L 115.323882 95.128938 
L 78.677079 94.816242 
z
" clip-path="url(#p2fbc2e0d3f)" style="fill: #808080; fill-opacity: 0.6; stroke: #808080; stroke-opacity: 0.6; stroke-width: 2"/>
    <path d="M 78.677079 92.294911 
L 78.677079 94.816242 
L 78.677079 94.816242 
L 115.323882 95.005577 
L 150.506473 95.563137 
L 184.287161 96.473252 
L 216.728252 97.720253 
L 247.892053 99.288471 
L 277.840871 101.162237 
L 306.637012 103.325882 
L 334.342784 105.763737 
L 361.020493 108.460132 
L 386.732446 111.399398 
L 411.54095 114.565867 
L 435.508311 117.943869 
L 458.696838 121.517735 
L 481.168836 125.271796 
L 502.986612 129.190383 
L 524.212473 133.257827 
L 544.908726 137.458458 
L 565.137677 141.776607 
L 584.961635 146.196606 
L 604.442904 150.702785 
L 623.643793 155.279475 
L 642.626609 159.911007 
L 661.453657 164.581712 
L 680.187244 169.275921 
L 698.889679 173.977964 
L 717.623266 178.672172 
L 736.450314 183.342877 
L 755.43313 187.974409 
L 774.634019 192.551099 
L 794.115288 197.057278 
L 813.939246 201.477277 
L 834.168197 205.795426 
L 854.86445 209.996057 
L 876.090312 214.063501 
L 897.908088 217.982088 
L 920.380085 221.736149 
L 943.568612 225.310015 
L 967.535973 228.688017 
L 992.344477 231.854486 
L 1018.05643 234.793752 
L 1044.734139 237.490147 
L 1072.439911 239.928002 
L 1101.236052 242.091647 
L 1131.18487 243.965413 
L 1162.348671 245.533631 
L 1194.789762 246.780632 
L 1228.57045 247.690747 
L 1263.753042 248.248307 
L 1300.399844 248.437642 
L 1300.399844 248.437642 
L 1300.399844 245.916312 
L 1300.399844 245.916312 
L 1263.753042 245.726976 
L 1228.57045 245.169417 
L 1194.789762 244.259302 
L 1162.348671 243.0123 
L 1131.18487 241.444082 
L 1101.236052 239.570316 
L 1072.439911 237.406671 
L 1044.734139 234.968817 
L 1018.05643 232.272422 
L 992.344477 229.333155 
L 967.535973 226.166686 
L 943.568612 222.788684 
L 920.380085 219.214818 
L 897.908088 215.460757 
L 876.090312 211.54217 
L 854.86445 207.474727 
L 834.168197 203.274096 
L 813.939246 198.955946 
L 794.115288 194.535947 
L 774.634019 190.029768 
L 755.43313 185.453078 
L 736.450314 180.821546 
L 717.623266 176.150841 
L 698.889679 171.456633 
L 680.187244 166.75459 
L 661.453657 162.060381 
L 642.626609 157.389677 
L 623.643793 152.758145 
L 604.442904 148.181455 
L 584.961635 143.675276 
L 565.137677 139.255277 
L 544.908726 134.937127 
L 524.212473 130.736496 
L 502.986612 126.669053 
L 481.168836 122.750466 
L 458.696838 118.996405 
L 435.508311 115.422539 
L 411.54095 112.044537 
L 386.732446 108.878068 
L 361.020493 105.938801 
L 334.342784 103.242406 
L 306.637012 100.804551 
L 277.840871 98.640907 
L 247.892053 96.76714 
L 216.728252 95.198922 
L 184.287161 93.951921 
L 150.506473 93.041806 
L 115.323882 92.484246 
L 78.677079 92.294911 
z
" clip-path="url(#p2fbc2e0d3f)" style="fill: #808080; fill-opacity: 0.6; stroke: #808080; stroke-opacity: 0.6; stroke-width: 2"/>
    <path d="M 78.677079 54.631833 
L 78.677079 55.640366 
L 78.677079 55.640366 
L 115.323882 56.001345 
L 150.506473 57.064368 
L 184.287161 58.799561 
L 216.728252 61.177048 
L 247.892053 64.166955 
L 277.840871 67.73941 
L 306.637012 71.864537 
L 334.342784 76.512462 
L 361.020493 81.653311 
L 386.732446 87.257209 
L 411.54095 93.294284 
L 435.508311 99.73466 
L 458.696838 106.548463 
L 481.168836 113.70582 
L 502.986612 121.176855 
L 524.212473 128.931695 
L 544.908726 136.940465 
L 565.137677 145.173292 
L 584.961635 153.600302 
L 604.442904 162.191619 
L 623.643793 170.91737 
L 642.626609 179.74768 
L 661.453657 188.652676 
L 680.187244 197.602484 
L 698.889679 206.567228 
L 717.623266 215.517035 
L 736.450314 224.422032 
L 755.43313 233.252342 
L 774.634019 241.978093 
L 794.115288 250.56941 
L 813.939246 258.996419 
L 834.168197 267.229246 
L 854.86445 275.238017 
L 876.090312 282.992857 
L 897.908088 290.463892 
L 920.380085 297.621249 
L 943.568612 304.435052 
L 967.535973 310.875428 
L 992.344477 316.912502 
L 1018.05643 322.516401 
L 1044.734139 327.65725 
L 1072.439911 332.305175 
L 1101.236052 336.430302 
L 1131.18487 340.002756 
L 1162.348671 342.992664 
L 1194.789762 345.370151 
L 1228.57045 347.105343 
L 1263.753042 348.168366 
L 1300.399844 348.529346 
L 1300.399844 348.529346 
L 1300.399844 347.520814 
L 1300.399844 347.520814 
L 1263.753042 347.159834 
L 1228.57045 346.096811 
L 1194.789762 344.361619 
L 1162.348671 341.984132 
L 1131.18487 338.994224 
L 1101.236052 335.42177 
L 1072.439911 331.296643 
L 1044.734139 326.648718 
L 1018.05643 321.507869 
L 992.344477 315.90397 
L 967.535973 309.866896 
L 943.568612 303.42652 
L 920.380085 296.612716 
L 897.908088 289.45536 
L 876.090312 281.984325 
L 854.86445 274.229485 
L 834.168197 266.220714 
L 813.939246 257.987887 
L 794.115288 249.560878 
L 774.634019 240.969561 
L 755.43313 232.24381 
L 736.450314 223.413499 
L 717.623266 214.508503 
L 698.889679 205.558696 
L 680.187244 196.593951 
L 661.453657 187.644144 
L 642.626609 178.739148 
L 623.643793 169.908837 
L 604.442904 161.183086 
L 584.961635 152.591769 
L 565.137677 144.16476 
L 544.908726 135.931933 
L 524.212473 127.923163 
L 502.986612 120.168323 
L 481.168836 112.697287 
L 458.696838 105.539931 
L 435.508311 98.726128 
L 411.54095 92.285752 
L 386.732446 86.248677 
L 361.020493 80.644778 
L 334.342784 75.503929 
L 306.637012 70.856004 
L 277.840871 66.730878 
L 247.892053 63.158423 
L 216.728252 60.168515 
L 184.287161 57.791028 
L 150.506473 56.055836 
L 115.323882 54.992813 
L 78.677079 54.631833 
z
" clip-path="url(#p2fbc2e0d3f)" style="fill: #808080; fill-opacity: 0.6; stroke: #808080; stroke-opacity: 0.6; stroke-width: 2"/>
    <path d="M 78.677079 53.018182 
L 78.677079 54.631833 
L 78.677079 54.631833 
L 115.323882 54.867588 
L 150.506473 55.561843 
L 184.287161 56.695089 
L 216.728252 58.247816 
L 247.892053 60.200511 
L 277.840871 62.533665 
L 306.637012 65.227767 
L 334.342784 68.263306 
L 361.020493 71.620771 
L 386.732446 75.280652 
L 411.54095 79.223438 
L 435.508311 83.429619 
L 458.696838 87.879683 
L 481.168836 92.554121 
L 502.986612 97.43342 
L 524.212473 102.498071 
L 544.908726 107.728564 
L 565.137677 113.105386 
L 584.961635 118.609028 
L 604.442904 124.219978 
L 623.643793 129.918727 
L 642.626609 135.685763 
L 661.453657 141.501576 
L 680.187244 147.346655 
L 698.889679 153.20149 
L 717.623266 159.046569 
L 736.450314 164.862382 
L 755.43313 170.629418 
L 774.634019 176.328167 
L 794.115288 181.939117 
L 813.939246 187.442759 
L 834.168197 192.819581 
L 854.86445 198.050074 
L 876.090312 203.114725 
L 897.908088 207.994024 
L 920.380085 212.668462 
L 943.568612 217.118526 
L 967.535973 221.324707 
L 992.344477 225.267493 
L 1018.05643 228.927374 
L 1044.734139 232.284839 
L 1072.439911 235.320378 
L 1101.236052 238.01448 
L 1131.18487 240.347634 
L 1162.348671 242.300329 
L 1194.789762 243.853056 
L 1228.57045 244.986302 
L 1263.753042 245.680557 
L 1300.399844 245.916312 
L 1300.399844 245.916312 
L 1300.399844 244.30266 
L 1300.399844 244.30266 
L 1263.753042 244.066906 
L 1228.57045 243.37265 
L 1194.789762 242.239404 
L 1162.348671 240.686678 
L 1131.18487 238.733982 
L 1101.236052 236.400828 
L 1072.439911 233.706727 
L 1044.734139 230.671188 
L 1018.05643 227.313722 
L 992.344477 223.653841 
L 967.535973 219.711055 
L 943.568612 215.504874 
L 920.380085 211.05481 
L 897.908088 206.380373 
L 876.090312 201.501073 
L 854.86445 196.436422 
L 834.168197 191.20593 
L 813.939246 185.829107 
L 794.115288 180.325466 
L 774.634019 174.714515 
L 755.43313 169.015766 
L 736.450314 163.24873 
L 717.623266 157.432917 
L 698.889679 151.587838 
L 680.187244 145.733004 
L 661.453657 139.887925 
L 642.626609 134.072112 
L 623.643793 128.305076 
L 604.442904 122.606327 
L 584.961635 116.995376 
L 565.137677 111.491734 
L 544.908726 106.114912 
L 524.212473 100.88442 
L 502.986612 95.819769 
L 481.168836 90.940469 
L 458.696838 86.266032 
L 435.508311 81.815967 
L 411.54095 77.609787 
L 386.732446 73.667001 
L 361.020493 70.007119 
L 334.342784 66.649654 
L 306.637012 63.614115 
L 277.840871 60.920013 
L 247.892053 58.586859 
L 216.728252 56.634164 
L 184.287161 55.081438 
L 150.506473 53.948192 
L 115.323882 53.253936 
L 78.677079 53.018182 
z
" clip-path="url(#p2fbc2e0d3f)" style="fill: #808080; fill-opacity: 0.6; stroke: #808080; stroke-opacity: 0.6; stroke-width: 2"/>
   </g>
   <g id="PathCollection_1">
    <defs>
     <path id="C0_0_2f1625cf76" d="M 0 10 
C 2.652031 10 5.195799 8.946337 7.071068 7.071068 
C 8.946337 5.195799 10 2.652031 10 -0 
C 10 -2.652031 8.946337 -5.195799 7.071068 -7.071068 
C 5.195799 -8.946337 2.652031 -10 0 -10 
C -2.652031 -10 -5.195799 -8.946337 -7.071068 -7.071068 
C -8.946337 -5.195799 -10 -2.652031 -10 0 
C -10 2.652031 -8.946337 5.195799 -7.071068 7.071068 
C -5.195799 8.946337 -2.652031 10 0 10 
z
"/>
    </defs>
    <g clip-path="url(#p2fbc2e0d3f)">
     <use xlink:href="#C0_0_2f1625cf76" x="69.230769" y="679.52964" style="fill: #1f77b4; stroke: #000000"/>
    </g>
    <g clip-path="url(#p2fbc2e0d3f)">
     <use xlink:href="#C0_0_2f1625cf76" x="69.230769" y="333.507818" style="fill: #ff7f0e; stroke: #000000"/>
    </g>
    <g clip-path="url(#p2fbc2e0d3f)">
     <use xlink:href="#C0_0_2f1625cf76" x="69.230769" y="261.806776" style="fill: #2ca02c; stroke: #000000"/>
    </g>
    <g clip-path="url(#p2fbc2e0d3f)">
     <use xlink:href="#C0_0_2f1625cf76" x="69.230769" y="171.100503" style="fill: #d62728; stroke: #000000"/>
    </g>
    <g clip-path="url(#p2fbc2e0d3f)">
     <use xlink:href="#C0_0_2f1625cf76" x="69.230769" y="208.763581" style="fill: #9467bd; stroke: #000000"/>
    </g>
    <g clip-path="url(#p2fbc2e0d3f)">
     <use xlink:href="#C0_0_2f1625cf76" x="69.230769" y="133.286146" style="fill: #8c564b; stroke: #000000"/>
    </g>
    <g clip-path="url(#p2fbc2e0d3f)">
     <use xlink:href="#C0_0_2f1625cf76" x="69.230769" y="93.958989" style="fill: #e377c2; stroke: #000000"/>
    </g>
    <g clip-path="url(#p2fbc2e0d3f)">
     <use xlink:href="#C0_0_2f1625cf76" x="69.230769" y="54.329274" style="fill: #7f7f7f; stroke: #000000"/>
    </g>
    <g clip-path="url(#p2fbc2e0d3f)">
     <use xlink:href="#C0_0_2f1625cf76" x="1309.846154" y="658.451316" style="fill: #bcbd22; stroke: #000000"/>
    </g>
    <g clip-path="url(#p2fbc2e0d3f)">
     <use xlink:href="#C0_0_2f1625cf76" x="1309.846154" y="263.263067" style="fill: #9edae5; stroke: #000000"/>
    </g>
   </g>
   <g id="PatchCollection_1">
    <path d="M 59.784459 969.381818 
L 78.677079 969.381818 
L 78.677079 389.677463 
L 59.784459 389.677463 
z
" clip-path="url(#p2fbc2e0d3f)" style="fill: #1f77b4; stroke: #000000"/>
    <path d="M 59.784459 353.022918 
L 78.677079 353.022918 
L 78.677079 313.992719 
L 59.784459 313.992719 
z
" clip-path="url(#p2fbc2e0d3f)" style="fill: #ff7f0e; stroke: #000000"/>
    <path d="M 59.784459 277.338173 
L 78.677079 277.338173 
L 78.677079 246.275378 
L 59.784459 246.275378 
z
" clip-path="url(#p2fbc2e0d3f)" style="fill: #2ca02c; stroke: #000000"/>
    <path d="M 59.784459 171.251783 
L 78.677079 171.251783 
L 78.677079 170.949222 
L 59.784459 170.949222 
z
" clip-path="url(#p2fbc2e0d3f)" style="fill: #d62728; stroke: #000000"/>
    <path d="M 59.784459 209.620833 
L 78.677079 209.620833 
L 78.677079 207.906329 
L 59.784459 207.906329 
z
" clip-path="url(#p2fbc2e0d3f)" style="fill: #9467bd; stroke: #000000"/>
    <path d="M 59.784459 134.294678 
L 78.677079 134.294678 
L 78.677079 132.277614 
L 59.784459 132.277614 
z
" clip-path="url(#p2fbc2e0d3f)" style="fill: #8c564b; stroke: #000000"/>
    <path d="M 59.784459 95.623068 
L 78.677079 95.623068 
L 78.677079 92.294911 
L 59.784459 92.294911 
z
" clip-path="url(#p2fbc2e0d3f)" style="fill: #e377c2; stroke: #000000"/>
    <path d="M 59.784459 55.640366 
L 78.677079 55.640366 
L 78.677079 53.018182 
L 59.784459 53.018182 
z
" clip-path="url(#p2fbc2e0d3f)" style="fill: #7f7f7f; stroke: #000000"/>
    <path d="M 1300.399844 969.381818 
L 1319.292464 969.381818 
L 1319.292464 347.520813 
L 1300.399844 347.520813 
z
" clip-path="url(#p2fbc2e0d3f)" style="fill: #bcbd22; stroke: #000000"/>
    <path d="M 1300.399844 282.223474 
L 1319.292464 282.223474 
L 1319.292464 244.30266 
L 1300.399844 244.30266 
z
" clip-path="url(#p2fbc2e0d3f)" style="fill: #9edae5; stroke: #000000"/>
   </g>
   <g id="text_1">
    <!-- no failure - 5748 -->
    <g transform="translate(83.400234 685.04839)scale(0.2 -0.2)">
     <defs>
      <path id="DejaVuSans-6e" d="M 3513 2113 
L 3513 0 
L 2938 0 
L 2938 2094 
Q 2938 2591 2744 2837 
Q 2550 3084 2163 3084 
Q 1697 3084 1428 2787 
Q 1159 2491 1159 1978 
L 1159 0 
L 581 0 
L 581 3500 
L 1159 3500 
L 1159 2956 
Q 1366 3272 1645 3428 
Q 1925 3584 2291 3584 
Q 2894 3584 3203 3211 
Q 3513 2838 3513 2113 
z
" transform="scale(0.015625)"/>
      <path id="DejaVuSans-6f" d="M 1959 3097 
Q 1497 3097 1228 2736 
Q 959 2375 959 1747 
Q 959 1119 1226 758 
Q 1494 397 1959 397 
Q 2419 397 2687 759 
Q 2956 1122 2956 1747 
Q 2956 2369 2687 2733 
Q 2419 3097 1959 3097 
z
M 1959 3584 
Q 2709 3584 3137 3096 
Q 3566 2609 3566 1747 
Q 3566 888 3137 398 
Q 2709 -91 1959 -91 
Q 1206 -91 779 398 
Q 353 888 353 1747 
Q 353 2609 779 3096 
Q 1206 3584 1959 3584 
z
" transform="scale(0.015625)"/>
      <path id="DejaVuSans-20" transform="scale(0.015625)"/>
      <path id="DejaVuSans-66" d="M 2375 4863 
L 2375 4384 
L 1825 4384 
Q 1516 4384 1395 4259 
Q 1275 4134 1275 3809 
L 1275 3500 
L 2222 3500 
L 2222 3053 
L 1275 3053 
L 1275 0 
L 697 0 
L 697 3053 
L 147 3053 
L 147 3500 
L 697 3500 
L 697 3744 
Q 697 4328 969 4595 
Q 1241 4863 1831 4863 
L 2375 4863 
z
" transform="scale(0.015625)"/>
      <path id="DejaVuSans-61" d="M 2194 1759 
Q 1497 1759 1228 1600 
Q 959 1441 959 1056 
Q 959 750 1161 570 
Q 1363 391 1709 391 
Q 2188 391 2477 730 
Q 2766 1069 2766 1631 
L 2766 1759 
L 2194 1759 
z
M 3341 1997 
L 3341 0 
L 2766 0 
L 2766 531 
Q 2569 213 2275 61 
Q 1981 -91 1556 -91 
Q 1019 -91 701 211 
Q 384 513 384 1019 
Q 384 1609 779 1909 
Q 1175 2209 1959 2209 
L 2766 2209 
L 2766 2266 
Q 2766 2663 2505 2880 
Q 2244 3097 1772 3097 
Q 1472 3097 1187 3025 
Q 903 2953 641 2809 
L 641 3341 
Q 956 3463 1253 3523 
Q 1550 3584 1831 3584 
Q 2591 3584 2966 3190 
Q 3341 2797 3341 1997 
z
" transform="scale(0.015625)"/>
      <path id="DejaVuSans-69" d="M 603 3500 
L 1178 3500 
L 1178 0 
L 603 0 
L 603 3500 
z
M 603 4863 
L 1178 4863 
L 1178 4134 
L 603 4134 
L 603 4863 
z
" transform="scale(0.015625)"/>
      <path id="DejaVuSans-6c" d="M 603 4863 
L 1178 4863 
L 1178 0 
L 603 0 
L 603 4863 
z
" transform="scale(0.015625)"/>
      <path id="DejaVuSans-75" d="M 544 1381 
L 544 3500 
L 1119 3500 
L 1119 1403 
Q 1119 906 1312 657 
Q 1506 409 1894 409 
Q 2359 409 2629 706 
Q 2900 1003 2900 1516 
L 2900 3500 
L 3475 3500 
L 3475 0 
L 2900 0 
L 2900 538 
Q 2691 219 2414 64 
Q 2138 -91 1772 -91 
Q 1169 -91 856 284 
Q 544 659 544 1381 
z
M 1991 3584 
L 1991 3584 
z
" transform="scale(0.015625)"/>
      <path id="DejaVuSans-72" d="M 2631 2963 
Q 2534 3019 2420 3045 
Q 2306 3072 2169 3072 
Q 1681 3072 1420 2755 
Q 1159 2438 1159 1844 
L 1159 0 
L 581 0 
L 581 3500 
L 1159 3500 
L 1159 2956 
Q 1341 3275 1631 3429 
Q 1922 3584 2338 3584 
Q 2397 3584 2469 3576 
Q 2541 3569 2628 3553 
L 2631 2963 
z
" transform="scale(0.015625)"/>
      <path id="DejaVuSans-65" d="M 3597 1894 
L 3597 1613 
L 953 1613 
Q 991 1019 1311 708 
Q 1631 397 2203 397 
Q 2534 397 2845 478 
Q 3156 559 3463 722 
L 3463 178 
Q 3153 47 2828 -22 
Q 2503 -91 2169 -91 
Q 1331 -91 842 396 
Q 353 884 353 1716 
Q 353 2575 817 3079 
Q 1281 3584 2069 3584 
Q 2775 3584 3186 3129 
Q 3597 2675 3597 1894 
z
M 3022 2063 
Q 3016 2534 2758 2815 
Q 2500 3097 2075 3097 
Q 1594 3097 1305 2825 
Q 1016 2553 972 2059 
L 3022 2063 
z
" transform="scale(0.015625)"/>
      <path id="DejaVuSans-2d" d="M 313 2009 
L 1997 2009 
L 1997 1497 
L 313 1497 
L 313 2009 
z
" transform="scale(0.015625)"/>
      <path id="DejaVuSans-35" d="M 691 4666 
L 3169 4666 
L 3169 4134 
L 1269 4134 
L 1269 2991 
Q 1406 3038 1543 3061 
Q 1681 3084 1819 3084 
Q 2600 3084 3056 2656 
Q 3513 2228 3513 1497 
Q 3513 744 3044 326 
Q 2575 -91 1722 -91 
Q 1428 -91 1123 -41 
Q 819 9 494 109 
L 494 744 
Q 775 591 1075 516 
Q 1375 441 1709 441 
Q 2250 441 2565 725 
Q 2881 1009 2881 1497 
Q 2881 1984 2565 2268 
Q 2250 2553 1709 2553 
Q 1456 2553 1204 2497 
Q 953 2441 691 2322 
L 691 4666 
z
" transform="scale(0.015625)"/>
      <path id="DejaVuSans-37" d="M 525 4666 
L 3525 4666 
L 3525 4397 
L 1831 0 
L 1172 0 
L 2766 4134 
L 525 4134 
L 525 4666 
z
" transform="scale(0.015625)"/>
      <path id="DejaVuSans-34" d="M 2419 4116 
L 825 1625 
L 2419 1625 
L 2419 4116 
z
M 2253 4666 
L 3047 4666 
L 3047 1625 
L 3713 1625 
L 3713 1100 
L 3047 1100 
L 3047 0 
L 2419 0 
L 2419 1100 
L 313 1100 
L 313 1709 
L 2253 4666 
z
" transform="scale(0.015625)"/>
      <path id="DejaVuSans-38" d="M 2034 2216 
Q 1584 2216 1326 1975 
Q 1069 1734 1069 1313 
Q 1069 891 1326 650 
Q 1584 409 2034 409 
Q 2484 409 2743 651 
Q 3003 894 3003 1313 
Q 3003 1734 2745 1975 
Q 2488 2216 2034 2216 
z
M 1403 2484 
Q 997 2584 770 2862 
Q 544 3141 544 3541 
Q 544 4100 942 4425 
Q 1341 4750 2034 4750 
Q 2731 4750 3128 4425 
Q 3525 4100 3525 3541 
Q 3525 3141 3298 2862 
Q 3072 2584 2669 2484 
Q 3125 2378 3379 2068 
Q 3634 1759 3634 1313 
Q 3634 634 3220 271 
Q 2806 -91 2034 -91 
Q 1263 -91 848 271 
Q 434 634 434 1313 
Q 434 1759 690 2068 
Q 947 2378 1403 2484 
z
M 1172 3481 
Q 1172 3119 1398 2916 
Q 1625 2713 2034 2713 
Q 2441 2713 2670 2916 
Q 2900 3119 2900 3481 
Q 2900 3844 2670 4047 
Q 2441 4250 2034 4250 
Q 1625 4250 1398 4047 
Q 1172 3844 1172 3481 
z
" transform="scale(0.015625)"/>
     </defs>
     <use xlink:href="#DejaVuSans-6e"/>
     <use xlink:href="#DejaVuSans-6f" x="63.378906"/>
     <use xlink:href="#DejaVuSans-20" x="124.560547"/>
     <use xlink:href="#DejaVuSans-66" x="156.347656"/>
     <use xlink:href="#DejaVuSans-61" x="191.552734"/>
     <use xlink:href="#DejaVuSans-69" x="252.832031"/>
     <use xlink:href="#DejaVuSans-6c" x="280.615234"/>
     <use xlink:href="#DejaVuSans-75" x="308.398438"/>
     <use xlink:href="#DejaVuSans-72" x="371.777344"/>
     <use xlink:href="#DejaVuSans-65" x="410.640625"/>
     <use xlink:href="#DejaVuSans-20" x="472.164062"/>
     <use xlink:href="#DejaVuSans-2d" x="503.951172"/>
     <use xlink:href="#DejaVuSans-20" x="540.035156"/>
     <use xlink:href="#DejaVuSans-35" x="571.822266"/>
     <use xlink:href="#DejaVuSans-37" x="635.445312"/>
     <use xlink:href="#DejaVuSans-34" x="699.068359"/>
     <use xlink:href="#DejaVuSans-38" x="762.691406"/>
    </g>
   </g>
   <g id="text_2">
    <!-- perception - 387 -->
    <g transform="translate(83.400234 339.026568)scale(0.2 -0.2)">
     <defs>
      <path id="DejaVuSans-70" d="M 1159 525 
L 1159 -1331 
L 581 -1331 
L 581 3500 
L 1159 3500 
L 1159 2969 
Q 1341 3281 1617 3432 
Q 1894 3584 2278 3584 
Q 2916 3584 3314 3078 
Q 3713 2572 3713 1747 
Q 3713 922 3314 415 
Q 2916 -91 2278 -91 
Q 1894 -91 1617 61 
Q 1341 213 1159 525 
z
M 3116 1747 
Q 3116 2381 2855 2742 
Q 2594 3103 2138 3103 
Q 1681 3103 1420 2742 
Q 1159 2381 1159 1747 
Q 1159 1113 1420 752 
Q 1681 391 2138 391 
Q 2594 391 2855 752 
Q 3116 1113 3116 1747 
z
" transform="scale(0.015625)"/>
      <path id="DejaVuSans-63" d="M 3122 3366 
L 3122 2828 
Q 2878 2963 2633 3030 
Q 2388 3097 2138 3097 
Q 1578 3097 1268 2742 
Q 959 2388 959 1747 
Q 959 1106 1268 751 
Q 1578 397 2138 397 
Q 2388 397 2633 464 
Q 2878 531 3122 666 
L 3122 134 
Q 2881 22 2623 -34 
Q 2366 -91 2075 -91 
Q 1284 -91 818 406 
Q 353 903 353 1747 
Q 353 2603 823 3093 
Q 1294 3584 2113 3584 
Q 2378 3584 2631 3529 
Q 2884 3475 3122 3366 
z
" transform="scale(0.015625)"/>
      <path id="DejaVuSans-74" d="M 1172 4494 
L 1172 3500 
L 2356 3500 
L 2356 3053 
L 1172 3053 
L 1172 1153 
Q 1172 725 1289 603 
Q 1406 481 1766 481 
L 2356 481 
L 2356 0 
L 1766 0 
Q 1100 0 847 248 
Q 594 497 594 1153 
L 594 3053 
L 172 3053 
L 172 3500 
L 594 3500 
L 594 4494 
L 1172 4494 
z
" transform="scale(0.015625)"/>
      <path id="DejaVuSans-33" d="M 2597 2516 
Q 3050 2419 3304 2112 
Q 3559 1806 3559 1356 
Q 3559 666 3084 287 
Q 2609 -91 1734 -91 
Q 1441 -91 1130 -33 
Q 819 25 488 141 
L 488 750 
Q 750 597 1062 519 
Q 1375 441 1716 441 
Q 2309 441 2620 675 
Q 2931 909 2931 1356 
Q 2931 1769 2642 2001 
Q 2353 2234 1838 2234 
L 1294 2234 
L 1294 2753 
L 1863 2753 
Q 2328 2753 2575 2939 
Q 2822 3125 2822 3475 
Q 2822 3834 2567 4026 
Q 2313 4219 1838 4219 
Q 1578 4219 1281 4162 
Q 984 4106 628 3988 
L 628 4550 
Q 988 4650 1302 4700 
Q 1616 4750 1894 4750 
Q 2613 4750 3031 4423 
Q 3450 4097 3450 3541 
Q 3450 3153 3228 2886 
Q 3006 2619 2597 2516 
z
" transform="scale(0.015625)"/>
     </defs>
     <use xlink:href="#DejaVuSans-70"/>
     <use xlink:href="#DejaVuSans-65" x="63.476562"/>
     <use xlink:href="#DejaVuSans-72" x="125"/>
     <use xlink:href="#DejaVuSans-63" x="163.863281"/>
     <use xlink:href="#DejaVuSans-65" x="218.84375"/>
     <use xlink:href="#DejaVuSans-70" x="280.367188"/>
     <use xlink:href="#DejaVuSans-74" x="343.84375"/>
     <use xlink:href="#DejaVuSans-69" x="383.052734"/>
     <use xlink:href="#DejaVuSans-6f" x="410.835938"/>
     <use xlink:href="#DejaVuSans-6e" x="472.017578"/>
     <use xlink:href="#DejaVuSans-20" x="535.396484"/>
     <use xlink:href="#DejaVuSans-2d" x="567.183594"/>
     <use xlink:href="#DejaVuSans-20" x="603.267578"/>
     <use xlink:href="#DejaVuSans-33" x="635.054688"/>
     <use xlink:href="#DejaVuSans-38" x="698.677734"/>
     <use xlink:href="#DejaVuSans-37" x="762.300781"/>
    </g>
   </g>
   <g id="text_3">
    <!-- prediction - 308 -->
    <g transform="translate(83.400234 267.325526)scale(0.2 -0.2)">
     <defs>
      <path id="DejaVuSans-64" d="M 2906 2969 
L 2906 4863 
L 3481 4863 
L 3481 0 
L 2906 0 
L 2906 525 
Q 2725 213 2448 61 
Q 2172 -91 1784 -91 
Q 1150 -91 751 415 
Q 353 922 353 1747 
Q 353 2572 751 3078 
Q 1150 3584 1784 3584 
Q 2172 3584 2448 3432 
Q 2725 3281 2906 2969 
z
M 947 1747 
Q 947 1113 1208 752 
Q 1469 391 1925 391 
Q 2381 391 2643 752 
Q 2906 1113 2906 1747 
Q 2906 2381 2643 2742 
Q 2381 3103 1925 3103 
Q 1469 3103 1208 2742 
Q 947 2381 947 1747 
z
" transform="scale(0.015625)"/>
      <path id="DejaVuSans-30" d="M 2034 4250 
Q 1547 4250 1301 3770 
Q 1056 3291 1056 2328 
Q 1056 1369 1301 889 
Q 1547 409 2034 409 
Q 2525 409 2770 889 
Q 3016 1369 3016 2328 
Q 3016 3291 2770 3770 
Q 2525 4250 2034 4250 
z
M 2034 4750 
Q 2819 4750 3233 4129 
Q 3647 3509 3647 2328 
Q 3647 1150 3233 529 
Q 2819 -91 2034 -91 
Q 1250 -91 836 529 
Q 422 1150 422 2328 
Q 422 3509 836 4129 
Q 1250 4750 2034 4750 
z
" transform="scale(0.015625)"/>
     </defs>
     <use xlink:href="#DejaVuSans-70"/>
     <use xlink:href="#DejaVuSans-72" x="63.476562"/>
     <use xlink:href="#DejaVuSans-65" x="102.339844"/>
     <use xlink:href="#DejaVuSans-64" x="163.863281"/>
     <use xlink:href="#DejaVuSans-69" x="227.339844"/>
     <use xlink:href="#DejaVuSans-63" x="255.123047"/>
     <use xlink:href="#DejaVuSans-74" x="310.103516"/>
     <use xlink:href="#DejaVuSans-69" x="349.3125"/>
     <use xlink:href="#DejaVuSans-6f" x="377.095703"/>
     <use xlink:href="#DejaVuSans-6e" x="438.277344"/>
     <use xlink:href="#DejaVuSans-20" x="501.65625"/>
     <use xlink:href="#DejaVuSans-2d" x="533.443359"/>
     <use xlink:href="#DejaVuSans-20" x="569.527344"/>
     <use xlink:href="#DejaVuSans-33" x="601.314453"/>
     <use xlink:href="#DejaVuSans-30" x="664.9375"/>
     <use xlink:href="#DejaVuSans-38" x="728.560547"/>
    </g>
   </g>
   <g id="text_4">
    <!-- perception and prediction - 3 -->
    <g transform="translate(83.400234 176.619253)scale(0.2 -0.2)">
     <use xlink:href="#DejaVuSans-70"/>
     <use xlink:href="#DejaVuSans-65" x="63.476562"/>
     <use xlink:href="#DejaVuSans-72" x="125"/>
     <use xlink:href="#DejaVuSans-63" x="163.863281"/>
     <use xlink:href="#DejaVuSans-65" x="218.84375"/>
     <use xlink:href="#DejaVuSans-70" x="280.367188"/>
     <use xlink:href="#DejaVuSans-74" x="343.84375"/>
     <use xlink:href="#DejaVuSans-69" x="383.052734"/>
     <use xlink:href="#DejaVuSans-6f" x="410.835938"/>
     <use xlink:href="#DejaVuSans-6e" x="472.017578"/>
     <use xlink:href="#DejaVuSans-20" x="535.396484"/>
     <use xlink:href="#DejaVuSans-61" x="567.183594"/>
     <use xlink:href="#DejaVuSans-6e" x="628.462891"/>
     <use xlink:href="#DejaVuSans-64" x="691.841797"/>
     <use xlink:href="#DejaVuSans-20" x="755.318359"/>
     <use xlink:href="#DejaVuSans-70" x="787.105469"/>
     <use xlink:href="#DejaVuSans-72" x="850.582031"/>
     <use xlink:href="#DejaVuSans-65" x="889.445312"/>
     <use xlink:href="#DejaVuSans-64" x="950.96875"/>
     <use xlink:href="#DejaVuSans-69" x="1014.445312"/>
     <use xlink:href="#DejaVuSans-63" x="1042.228516"/>
     <use xlink:href="#DejaVuSans-74" x="1097.208984"/>
     <use xlink:href="#DejaVuSans-69" x="1136.417969"/>
     <use xlink:href="#DejaVuSans-6f" x="1164.201172"/>
     <use xlink:href="#DejaVuSans-6e" x="1225.382812"/>
     <use xlink:href="#DejaVuSans-20" x="1288.761719"/>
     <use xlink:href="#DejaVuSans-2d" x="1320.548828"/>
     <use xlink:href="#DejaVuSans-20" x="1356.632812"/>
     <use xlink:href="#DejaVuSans-33" x="1388.419922"/>
    </g>
   </g>
   <g id="text_5">
    <!-- planning - 17 -->
    <g transform="translate(83.400234 214.282331)scale(0.2 -0.2)">
     <defs>
      <path id="DejaVuSans-67" d="M 2906 1791 
Q 2906 2416 2648 2759 
Q 2391 3103 1925 3103 
Q 1463 3103 1205 2759 
Q 947 2416 947 1791 
Q 947 1169 1205 825 
Q 1463 481 1925 481 
Q 2391 481 2648 825 
Q 2906 1169 2906 1791 
z
M 3481 434 
Q 3481 -459 3084 -895 
Q 2688 -1331 1869 -1331 
Q 1566 -1331 1297 -1286 
Q 1028 -1241 775 -1147 
L 775 -588 
Q 1028 -725 1275 -790 
Q 1522 -856 1778 -856 
Q 2344 -856 2625 -561 
Q 2906 -266 2906 331 
L 2906 616 
Q 2728 306 2450 153 
Q 2172 0 1784 0 
Q 1141 0 747 490 
Q 353 981 353 1791 
Q 353 2603 747 3093 
Q 1141 3584 1784 3584 
Q 2172 3584 2450 3431 
Q 2728 3278 2906 2969 
L 2906 3500 
L 3481 3500 
L 3481 434 
z
" transform="scale(0.015625)"/>
      <path id="DejaVuSans-31" d="M 794 531 
L 1825 531 
L 1825 4091 
L 703 3866 
L 703 4441 
L 1819 4666 
L 2450 4666 
L 2450 531 
L 3481 531 
L 3481 0 
L 794 0 
L 794 531 
z
" transform="scale(0.015625)"/>
     </defs>
     <use xlink:href="#DejaVuSans-70"/>
     <use xlink:href="#DejaVuSans-6c" x="63.476562"/>
     <use xlink:href="#DejaVuSans-61" x="91.259766"/>
     <use xlink:href="#DejaVuSans-6e" x="152.539062"/>
     <use xlink:href="#DejaVuSans-6e" x="215.917969"/>
     <use xlink:href="#DejaVuSans-69" x="279.296875"/>
     <use xlink:href="#DejaVuSans-6e" x="307.080078"/>
     <use xlink:href="#DejaVuSans-67" x="370.458984"/>
     <use xlink:href="#DejaVuSans-20" x="433.935547"/>
     <use xlink:href="#DejaVuSans-2d" x="465.722656"/>
     <use xlink:href="#DejaVuSans-20" x="501.806641"/>
     <use xlink:href="#DejaVuSans-31" x="533.59375"/>
     <use xlink:href="#DejaVuSans-37" x="597.216797"/>
    </g>
   </g>
   <g id="text_6">
    <!-- perception and planning - 20 -->
    <g transform="translate(83.400234 138.804896)scale(0.2 -0.2)">
     <defs>
      <path id="DejaVuSans-32" d="M 1228 531 
L 3431 531 
L 3431 0 
L 469 0 
L 469 531 
Q 828 903 1448 1529 
Q 2069 2156 2228 2338 
Q 2531 2678 2651 2914 
Q 2772 3150 2772 3378 
Q 2772 3750 2511 3984 
Q 2250 4219 1831 4219 
Q 1534 4219 1204 4116 
Q 875 4013 500 3803 
L 500 4441 
Q 881 4594 1212 4672 
Q 1544 4750 1819 4750 
Q 2544 4750 2975 4387 
Q 3406 4025 3406 3419 
Q 3406 3131 3298 2873 
Q 3191 2616 2906 2266 
Q 2828 2175 2409 1742 
Q 1991 1309 1228 531 
z
" transform="scale(0.015625)"/>
     </defs>
     <use xlink:href="#DejaVuSans-70"/>
     <use xlink:href="#DejaVuSans-65" x="63.476562"/>
     <use xlink:href="#DejaVuSans-72" x="125"/>
     <use xlink:href="#DejaVuSans-63" x="163.863281"/>
     <use xlink:href="#DejaVuSans-65" x="218.84375"/>
     <use xlink:href="#DejaVuSans-70" x="280.367188"/>
     <use xlink:href="#DejaVuSans-74" x="343.84375"/>
     <use xlink:href="#DejaVuSans-69" x="383.052734"/>
     <use xlink:href="#DejaVuSans-6f" x="410.835938"/>
     <use xlink:href="#DejaVuSans-6e" x="472.017578"/>
     <use xlink:href="#DejaVuSans-20" x="535.396484"/>
     <use xlink:href="#DejaVuSans-61" x="567.183594"/>
     <use xlink:href="#DejaVuSans-6e" x="628.462891"/>
     <use xlink:href="#DejaVuSans-64" x="691.841797"/>
     <use xlink:href="#DejaVuSans-20" x="755.318359"/>
     <use xlink:href="#DejaVuSans-70" x="787.105469"/>
     <use xlink:href="#DejaVuSans-6c" x="850.582031"/>
     <use xlink:href="#DejaVuSans-61" x="878.365234"/>
     <use xlink:href="#DejaVuSans-6e" x="939.644531"/>
     <use xlink:href="#DejaVuSans-6e" x="1003.023438"/>
     <use xlink:href="#DejaVuSans-69" x="1066.402344"/>
     <use xlink:href="#DejaVuSans-6e" x="1094.185547"/>
     <use xlink:href="#DejaVuSans-67" x="1157.564453"/>
     <use xlink:href="#DejaVuSans-20" x="1221.041016"/>
     <use xlink:href="#DejaVuSans-2d" x="1252.828125"/>
     <use xlink:href="#DejaVuSans-20" x="1288.912109"/>
     <use xlink:href="#DejaVuSans-32" x="1320.699219"/>
     <use xlink:href="#DejaVuSans-30" x="1384.322266"/>
    </g>
   </g>
   <g id="text_7">
    <!-- prediction and planning - 33 -->
    <g transform="translate(83.400234 99.477739)scale(0.2 -0.2)">
     <use xlink:href="#DejaVuSans-70"/>
     <use xlink:href="#DejaVuSans-72" x="63.476562"/>
     <use xlink:href="#DejaVuSans-65" x="102.339844"/>
     <use xlink:href="#DejaVuSans-64" x="163.863281"/>
     <use xlink:href="#DejaVuSans-69" x="227.339844"/>
     <use xlink:href="#DejaVuSans-63" x="255.123047"/>
     <use xlink:href="#DejaVuSans-74" x="310.103516"/>
     <use xlink:href="#DejaVuSans-69" x="349.3125"/>
     <use xlink:href="#DejaVuSans-6f" x="377.095703"/>
     <use xlink:href="#DejaVuSans-6e" x="438.277344"/>
     <use xlink:href="#DejaVuSans-20" x="501.65625"/>
     <use xlink:href="#DejaVuSans-61" x="533.443359"/>
     <use xlink:href="#DejaVuSans-6e" x="594.722656"/>
     <use xlink:href="#DejaVuSans-64" x="658.101562"/>
     <use xlink:href="#DejaVuSans-20" x="721.578125"/>
     <use xlink:href="#DejaVuSans-70" x="753.365234"/>
     <use xlink:href="#DejaVuSans-6c" x="816.841797"/>
     <use xlink:href="#DejaVuSans-61" x="844.625"/>
     <use xlink:href="#DejaVuSans-6e" x="905.904297"/>
     <use xlink:href="#DejaVuSans-6e" x="969.283203"/>
     <use xlink:href="#DejaVuSans-69" x="1032.662109"/>
     <use xlink:href="#DejaVuSans-6e" x="1060.445312"/>
     <use xlink:href="#DejaVuSans-67" x="1123.824219"/>
     <use xlink:href="#DejaVuSans-20" x="1187.300781"/>
     <use xlink:href="#DejaVuSans-2d" x="1219.087891"/>
     <use xlink:href="#DejaVuSans-20" x="1255.171875"/>
     <use xlink:href="#DejaVuSans-33" x="1286.958984"/>
     <use xlink:href="#DejaVuSans-33" x="1350.582031"/>
    </g>
   </g>
   <g id="text_8">
    <!-- perception, prediction and planning - 26 -->
    <g transform="translate(83.400234 59.848024)scale(0.2 -0.2)">
     <defs>
      <path id="DejaVuSans-2c" d="M 750 794 
L 1409 794 
L 1409 256 
L 897 -744 
L 494 -744 
L 750 256 
L 750 794 
z
" transform="scale(0.015625)"/>
      <path id="DejaVuSans-36" d="M 2113 2584 
Q 1688 2584 1439 2293 
Q 1191 2003 1191 1497 
Q 1191 994 1439 701 
Q 1688 409 2113 409 
Q 2538 409 2786 701 
Q 3034 994 3034 1497 
Q 3034 2003 2786 2293 
Q 2538 2584 2113 2584 
z
M 3366 4563 
L 3366 3988 
Q 3128 4100 2886 4159 
Q 2644 4219 2406 4219 
Q 1781 4219 1451 3797 
Q 1122 3375 1075 2522 
Q 1259 2794 1537 2939 
Q 1816 3084 2150 3084 
Q 2853 3084 3261 2657 
Q 3669 2231 3669 1497 
Q 3669 778 3244 343 
Q 2819 -91 2113 -91 
Q 1303 -91 875 529 
Q 447 1150 447 2328 
Q 447 3434 972 4092 
Q 1497 4750 2381 4750 
Q 2619 4750 2861 4703 
Q 3103 4656 3366 4563 
z
" transform="scale(0.015625)"/>
     </defs>
     <use xlink:href="#DejaVuSans-70"/>
     <use xlink:href="#DejaVuSans-65" x="63.476562"/>
     <use xlink:href="#DejaVuSans-72" x="125"/>
     <use xlink:href="#DejaVuSans-63" x="163.863281"/>
     <use xlink:href="#DejaVuSans-65" x="218.84375"/>
     <use xlink:href="#DejaVuSans-70" x="280.367188"/>
     <use xlink:href="#DejaVuSans-74" x="343.84375"/>
     <use xlink:href="#DejaVuSans-69" x="383.052734"/>
     <use xlink:href="#DejaVuSans-6f" x="410.835938"/>
     <use xlink:href="#DejaVuSans-6e" x="472.017578"/>
     <use xlink:href="#DejaVuSans-2c" x="535.396484"/>
     <use xlink:href="#DejaVuSans-20" x="567.183594"/>
     <use xlink:href="#DejaVuSans-70" x="598.970703"/>
     <use xlink:href="#DejaVuSans-72" x="662.447266"/>
     <use xlink:href="#DejaVuSans-65" x="701.310547"/>
     <use xlink:href="#DejaVuSans-64" x="762.833984"/>
     <use xlink:href="#DejaVuSans-69" x="826.310547"/>
     <use xlink:href="#DejaVuSans-63" x="854.09375"/>
     <use xlink:href="#DejaVuSans-74" x="909.074219"/>
     <use xlink:href="#DejaVuSans-69" x="948.283203"/>
     <use xlink:href="#DejaVuSans-6f" x="976.066406"/>
     <use xlink:href="#DejaVuSans-6e" x="1037.248047"/>
     <use xlink:href="#DejaVuSans-20" x="1100.626953"/>
     <use xlink:href="#DejaVuSans-61" x="1132.414062"/>
     <use xlink:href="#DejaVuSans-6e" x="1193.693359"/>
     <use xlink:href="#DejaVuSans-64" x="1257.072266"/>
     <use xlink:href="#DejaVuSans-20" x="1320.548828"/>
     <use xlink:href="#DejaVuSans-70" x="1352.335938"/>
     <use xlink:href="#DejaVuSans-6c" x="1415.8125"/>
     <use xlink:href="#DejaVuSans-61" x="1443.595703"/>
     <use xlink:href="#DejaVuSans-6e" x="1504.875"/>
     <use xlink:href="#DejaVuSans-6e" x="1568.253906"/>
     <use xlink:href="#DejaVuSans-69" x="1631.632812"/>
     <use xlink:href="#DejaVuSans-6e" x="1659.416016"/>
     <use xlink:href="#DejaVuSans-67" x="1722.794922"/>
     <use xlink:href="#DejaVuSans-20" x="1786.271484"/>
     <use xlink:href="#DejaVuSans-2d" x="1818.058594"/>
     <use xlink:href="#DejaVuSans-20" x="1854.142578"/>
     <use xlink:href="#DejaVuSans-32" x="1885.929688"/>
     <use xlink:href="#DejaVuSans-36" x="1949.552734"/>
    </g>
   </g>
   <g id="text_9">
    <!-- safe - 6166 -->
    <g transform="translate(1324.015619 663.970066)scale(0.2 -0.2)">
     <defs>
      <path id="DejaVuSans-73" d="M 2834 3397 
L 2834 2853 
Q 2591 2978 2328 3040 
Q 2066 3103 1784 3103 
Q 1356 3103 1142 2972 
Q 928 2841 928 2578 
Q 928 2378 1081 2264 
Q 1234 2150 1697 2047 
L 1894 2003 
Q 2506 1872 2764 1633 
Q 3022 1394 3022 966 
Q 3022 478 2636 193 
Q 2250 -91 1575 -91 
Q 1294 -91 989 -36 
Q 684 19 347 128 
L 347 722 
Q 666 556 975 473 
Q 1284 391 1588 391 
Q 1994 391 2212 530 
Q 2431 669 2431 922 
Q 2431 1156 2273 1281 
Q 2116 1406 1581 1522 
L 1381 1569 
Q 847 1681 609 1914 
Q 372 2147 372 2553 
Q 372 3047 722 3315 
Q 1072 3584 1716 3584 
Q 2034 3584 2315 3537 
Q 2597 3491 2834 3397 
z
" transform="scale(0.015625)"/>
     </defs>
     <use xlink:href="#DejaVuSans-73"/>
     <use xlink:href="#DejaVuSans-61" x="52.099609"/>
     <use xlink:href="#DejaVuSans-66" x="113.378906"/>
     <use xlink:href="#DejaVuSans-65" x="148.583984"/>
     <use xlink:href="#DejaVuSans-20" x="210.107422"/>
     <use xlink:href="#DejaVuSans-2d" x="241.894531"/>
     <use xlink:href="#DejaVuSans-20" x="277.978516"/>
     <use xlink:href="#DejaVuSans-36" x="309.765625"/>
     <use xlink:href="#DejaVuSans-31" x="373.388672"/>
     <use xlink:href="#DejaVuSans-36" x="437.011719"/>
     <use xlink:href="#DejaVuSans-36" x="500.634766"/>
    </g>
   </g>
   <g id="text_10">
    <!-- collision - 376 -->
    <g transform="translate(1324.015619 268.781817)scale(0.2 -0.2)">
     <use xlink:href="#DejaVuSans-63"/>
     <use xlink:href="#DejaVuSans-6f" x="54.980469"/>
     <use xlink:href="#DejaVuSans-6c" x="116.162109"/>
     <use xlink:href="#DejaVuSans-6c" x="143.945312"/>
     <use xlink:href="#DejaVuSans-69" x="171.728516"/>
     <use xlink:href="#DejaVuSans-73" x="199.511719"/>
     <use xlink:href="#DejaVuSans-69" x="251.611328"/>
     <use xlink:href="#DejaVuSans-6f" x="279.394531"/>
     <use xlink:href="#DejaVuSans-6e" x="340.576172"/>
     <use xlink:href="#DejaVuSans-20" x="403.955078"/>
     <use xlink:href="#DejaVuSans-2d" x="435.742188"/>
     <use xlink:href="#DejaVuSans-20" x="471.826172"/>
     <use xlink:href="#DejaVuSans-33" x="503.613281"/>
     <use xlink:href="#DejaVuSans-37" x="567.236328"/>
     <use xlink:href="#DejaVuSans-36" x="630.859375"/>
    </g>
   </g>
  </g>
 </g>
 <defs>
  <clipPath id="p2fbc2e0d3f">
   <rect x="7.2" y="7.2" width="1612.8" height="1008"/>
  </clipPath>
 </defs>
</svg>
